<svg width="59" height="50" viewBox="0 0 59 50" fill="none" xmlns="http://www.w3.org/2000/svg">
<path fill-rule="evenodd" clip-rule="evenodd" d="M7.59957 27.5062L3.53455 21.4899L29.1407 25.4291L7.59957 27.5062Z" fill="#E63D24"/>
<path fill-rule="evenodd" clip-rule="evenodd" d="M51.1305 30.6937L46.2166 33.9248L30.9459 25.6361L51.1305 30.6937Z" fill="#E63D24"/>
<path fill-rule="evenodd" clip-rule="evenodd" d="M56.3558 21.4899L52.2907 27.5062L30.7496 25.4291L56.3558 21.4899Z" fill="#E63D24"/>
<path fill-rule="evenodd" clip-rule="evenodd" d="M13.6737 33.9248L8.75977 30.6937L28.9443 25.6361L13.6737 33.9248Z" fill="#E63D24"/>
<path fill-rule="evenodd" clip-rule="evenodd" d="M3.89062 18.0566L0.94519 9.98314L29.3404 25.3278L3.89062 18.0566Z" fill="#E63D24"/>
<path fill-rule="evenodd" clip-rule="evenodd" d="M32.9305 36.6216L41.9952 41.4505L39.8515 36.6232L31.1487 26.0157L43.2904 35.986L49.0841 49.0325L30.3503 39.0526V25.4291L32.9305 36.6216Z" fill="#E63D24"/>
<path fill-rule="evenodd" clip-rule="evenodd" d="M58.9452 9.98314L55.9996 18.0566L30.5499 25.3278L58.9452 9.98314Z" fill="#E63D24"/>
<path fill-rule="evenodd" clip-rule="evenodd" d="M17.8952 41.4505L26.96 36.6216L29.54 25.4291V39.0526L10.8064 49.0325L16.6 35.986L28.7417 26.0157L20.0389 36.6232L17.8952 41.4505Z" fill="#E63D24"/>
<path fill-rule="evenodd" clip-rule="evenodd" d="M29.9452 9.42398L25.0205 22.0869L22.0028 20.4559L29.9452 0.0328579L37.8877 20.4559L34.8698 22.0869L29.9452 9.42398Z" fill="#E63D24"/>
</svg>
