<svg width="46" height="46" viewBox="0 0 46 46" fill="none" xmlns="http://www.w3.org/2000/svg">
<g clip-path="url(#clip0_8_116)">
<mask id="path-1-inside-1_8_116" fill="white">
<path d="M8.38482 16.7719C9.11267 16.772 9.83747 16.678 10.5412 16.4921C10.7247 16.4426 10.8812 16.3225 10.9763 16.158C11.0715 15.9935 11.0976 15.798 11.0489 15.6143C11.0002 15.4305 10.8808 15.2736 10.7167 15.1777C10.5525 15.0819 10.3571 15.0549 10.1731 15.1027C8.69699 15.4942 7.13292 15.388 5.72325 14.8006C4.31357 14.2133 3.13698 13.1775 2.37577 11.8538C1.61455 10.5302 1.3112 8.99243 1.51271 7.4789C1.71423 5.96537 2.40935 4.56053 3.4904 3.48203C4.57144 2.40352 5.97806 1.71155 7.49233 1.51332C9.0066 1.31509 10.544 1.62167 11.8663 2.38556C13.1887 3.14945 14.2221 4.32801 14.8066 5.73865C15.391 7.14929 15.4939 8.71326 15.0992 10.1883C15.0708 10.2807 15.0614 10.3779 15.0714 10.4741C15.0815 10.5702 15.1108 10.6634 15.1577 10.748C15.2045 10.8326 15.2679 10.9068 15.3442 10.9664C15.4204 11.0259 15.5078 11.0695 15.6012 11.0945C15.6946 11.1195 15.7921 11.1254 15.8879 11.1118C15.9837 11.0983 16.0757 11.0656 16.1586 11.0158C16.2414 10.9659 16.3134 10.8998 16.3701 10.8215C16.4268 10.7432 16.4672 10.6543 16.4888 10.56C16.9432 8.86773 16.8559 7.07563 16.2393 5.43545C15.6227 3.79527 14.5077 2.3894 13.0509 1.4153C11.5941 0.441189 9.86868 -0.0522167 8.11702 0.00437701C6.36535 0.0609707 4.67542 0.664721 3.28456 1.73083C1.89371 2.79694 0.87181 4.27185 0.362391 5.94841C-0.147028 7.62498 -0.118375 9.41896 0.444325 11.0784C1.00703 12.7379 2.0755 14.1794 3.4997 15.2006C4.92389 16.2217 6.63224 16.7712 8.38482 16.7719ZM30.3939 11.0688C30.4851 11.0445 30.5707 11.0024 30.6457 10.9449C30.7207 10.8875 30.7836 10.8158 30.8309 10.734C30.8782 10.6522 30.9088 10.5619 30.9212 10.4683C30.9335 10.3746 30.9272 10.2795 30.9028 10.1883C30.5081 8.71326 30.6109 7.14929 31.1954 5.73865C31.7798 4.32801 32.8133 3.14945 34.1356 2.38556C35.4579 1.62167 36.9953 1.31509 38.5096 1.51332C40.0239 1.71155 41.4305 2.40352 42.5115 3.48203C43.5926 4.56053 44.2877 5.96537 44.4892 7.4789C44.6907 8.99243 44.3874 10.5302 43.6262 11.8538C42.865 13.1775 41.6884 14.2133 40.2787 14.8006C38.869 15.388 37.3049 15.4942 35.8288 15.1027C35.6445 15.0537 35.4483 15.0798 35.2833 15.1754C35.1183 15.271 34.9981 15.4282 34.949 15.6125C34.8999 15.7967 34.9261 15.9929 35.0217 16.1579C35.1173 16.3228 35.2746 16.443 35.4589 16.4921C37.2391 16.9644 39.1254 16.8366 40.8256 16.1285C42.5258 15.4204 43.945 14.1715 44.8634 12.5753C45.7818 10.9791 46.1481 9.12472 45.9056 7.29932C45.6631 5.47391 44.8253 3.7794 43.522 2.47825C42.2187 1.17711 40.5226 0.341948 38.6964 0.102141C36.8703 -0.137666 35.016 0.231263 33.4209 1.15178C31.8257 2.0723 30.5786 3.49303 29.8729 5.19391C29.1671 6.89478 29.042 8.78088 29.5169 10.56C29.5669 10.7431 29.6869 10.8991 29.851 10.9943C30.0151 11.0896 30.2101 11.1163 30.3939 11.0688ZM15.6062 34.9312C15.5149 34.9555 15.4293 34.9976 15.3543 35.0551C15.2793 35.1125 15.2164 35.1842 15.1691 35.266C15.1219 35.3478 15.0912 35.4381 15.0789 35.5317C15.0665 35.6254 15.0728 35.7205 15.0973 35.8117C15.492 37.2867 15.3891 38.8507 14.8046 40.2614C14.2202 41.672 13.1867 42.8505 11.8644 43.6144C10.5421 44.3783 9.00469 44.6849 7.49042 44.4867C5.97615 44.2885 4.56953 43.5965 3.48848 42.518C2.40744 41.4395 1.71231 40.0346 1.5108 38.5211C1.30928 37.0076 1.61263 35.4698 2.37385 34.1462C3.13506 32.8225 4.31165 31.7867 5.72133 31.1994C7.131 30.612 8.69508 30.5058 10.1712 30.8973C10.3555 30.9463 10.5517 30.9202 10.7167 30.8246C10.8817 30.729 11.002 30.5718 11.051 30.3875C11.1001 30.2033 11.0739 30.0071 10.9783 29.8421C10.8827 29.6772 10.7254 29.557 10.5412 29.5079C8.76095 29.0356 6.87464 29.1635 5.17444 29.8715C3.47424 30.5796 2.05502 31.8285 1.13663 33.4247C0.218239 35.0209 -0.148073 36.8753 0.0944367 38.7007C0.336946 40.5261 1.17474 42.2206 2.47805 43.5218C3.78136 44.8229 5.47744 45.6581 7.30358 45.8979C9.12971 46.1377 10.984 45.7687 12.5792 44.8482C14.1743 43.9277 15.4214 42.507 16.1272 40.8061C16.8329 39.1052 16.958 37.2191 16.4831 35.44C16.4338 35.2565 16.314 35.1 16.1496 35.0047C15.9853 34.9093 15.7899 34.8829 15.6062 34.9312ZM37.6152 29.2281C36.8874 29.228 36.1626 29.322 35.4589 29.5079C35.2753 29.5574 35.1189 29.6775 35.0237 29.842C34.9286 30.0065 34.9025 30.202 34.9511 30.3857C34.9998 30.5695 35.1192 30.7264 35.2834 30.8223C35.4475 30.9181 35.6429 30.9451 35.8269 30.8973C37.303 30.5058 38.8671 30.612 40.2768 31.1994C41.6865 31.7867 42.863 32.8225 43.6243 34.1462C44.3855 35.4698 44.6888 37.0076 44.4873 38.5211C44.2858 40.0346 43.5907 41.4395 42.5096 42.518C41.4286 43.5965 40.022 44.2885 38.5077 44.4867C36.9934 44.6849 35.456 44.3783 34.1337 43.6144C32.8114 42.8505 31.7779 41.672 31.1935 40.2614C30.609 38.8507 30.5061 37.2867 30.9008 35.8117C30.9292 35.7193 30.9386 35.6221 30.9286 35.5259C30.9186 35.4298 30.8892 35.3366 30.8424 35.252C30.7955 35.1674 30.7321 35.0932 30.6559 35.0336C30.5797 34.9741 30.4922 34.9305 30.3988 34.9055C30.3054 34.8806 30.2079 34.8746 30.1121 34.8882C30.0163 34.9017 29.9243 34.9344 29.8414 34.9842C29.7586 35.0341 29.6867 35.1002 29.6299 35.1785C29.5732 35.2568 29.5328 35.3457 29.5112 35.44C29.0568 37.1323 29.1441 38.9244 29.7607 40.5645C30.3773 42.2047 31.4923 43.6106 32.9491 44.5847C34.4059 45.5588 36.1313 46.0522 37.883 45.9956C39.6347 45.939 41.3246 45.3353 42.7155 44.2692C44.1063 43.2031 45.1282 41.7281 45.6376 40.0516C46.147 38.375 46.1184 36.581 45.5557 34.9216C44.993 33.2621 43.9245 31.8206 42.5003 30.7994C41.0761 29.7783 39.3678 29.2288 37.6152 29.2281Z"/>
</mask>
<path d="M8.38482 16.7719C9.11267 16.772 9.83747 16.678 10.5412 16.4921C10.7247 16.4426 10.8812 16.3225 10.9763 16.158C11.0715 15.9935 11.0976 15.798 11.0489 15.6143C11.0002 15.4305 10.8808 15.2736 10.7167 15.1777C10.5525 15.0819 10.3571 15.0549 10.1731 15.1027C8.69699 15.4942 7.13292 15.388 5.72325 14.8006C4.31357 14.2133 3.13698 13.1775 2.37577 11.8538C1.61455 10.5302 1.3112 8.99243 1.51271 7.4789C1.71423 5.96537 2.40935 4.56053 3.4904 3.48203C4.57144 2.40352 5.97806 1.71155 7.49233 1.51332C9.0066 1.31509 10.544 1.62167 11.8663 2.38556C13.1887 3.14945 14.2221 4.32801 14.8066 5.73865C15.391 7.14929 15.4939 8.71326 15.0992 10.1883C15.0708 10.2807 15.0614 10.3779 15.0714 10.4741C15.0815 10.5702 15.1108 10.6634 15.1577 10.748C15.2045 10.8326 15.2679 10.9068 15.3442 10.9664C15.4204 11.0259 15.5078 11.0695 15.6012 11.0945C15.6946 11.1195 15.7921 11.1254 15.8879 11.1118C15.9837 11.0983 16.0757 11.0656 16.1586 11.0158C16.2414 10.9659 16.3134 10.8998 16.3701 10.8215C16.4268 10.7432 16.4672 10.6543 16.4888 10.56C16.9432 8.86773 16.8559 7.07563 16.2393 5.43545C15.6227 3.79527 14.5077 2.3894 13.0509 1.4153C11.5941 0.441189 9.86868 -0.0522167 8.11702 0.00437701C6.36535 0.0609707 4.67542 0.664721 3.28456 1.73083C1.89371 2.79694 0.87181 4.27185 0.362391 5.94841C-0.147028 7.62498 -0.118375 9.41896 0.444325 11.0784C1.00703 12.7379 2.0755 14.1794 3.4997 15.2006C4.92389 16.2217 6.63224 16.7712 8.38482 16.7719ZM30.3939 11.0688C30.4851 11.0445 30.5707 11.0024 30.6457 10.9449C30.7207 10.8875 30.7836 10.8158 30.8309 10.734C30.8782 10.6522 30.9088 10.5619 30.9212 10.4683C30.9335 10.3746 30.9272 10.2795 30.9028 10.1883C30.5081 8.71326 30.6109 7.14929 31.1954 5.73865C31.7798 4.32801 32.8133 3.14945 34.1356 2.38556C35.4579 1.62167 36.9953 1.31509 38.5096 1.51332C40.0239 1.71155 41.4305 2.40352 42.5115 3.48203C43.5926 4.56053 44.2877 5.96537 44.4892 7.4789C44.6907 8.99243 44.3874 10.5302 43.6262 11.8538C42.865 13.1775 41.6884 14.2133 40.2787 14.8006C38.869 15.388 37.3049 15.4942 35.8288 15.1027C35.6445 15.0537 35.4483 15.0798 35.2833 15.1754C35.1183 15.271 34.9981 15.4282 34.949 15.6125C34.8999 15.7967 34.9261 15.9929 35.0217 16.1579C35.1173 16.3228 35.2746 16.443 35.4589 16.4921C37.2391 16.9644 39.1254 16.8366 40.8256 16.1285C42.5258 15.4204 43.945 14.1715 44.8634 12.5753C45.7818 10.9791 46.1481 9.12472 45.9056 7.29932C45.6631 5.47391 44.8253 3.7794 43.522 2.47825C42.2187 1.17711 40.5226 0.341948 38.6964 0.102141C36.8703 -0.137666 35.016 0.231263 33.4209 1.15178C31.8257 2.0723 30.5786 3.49303 29.8729 5.19391C29.1671 6.89478 29.042 8.78088 29.5169 10.56C29.5669 10.7431 29.6869 10.8991 29.851 10.9943C30.0151 11.0896 30.2101 11.1163 30.3939 11.0688ZM15.6062 34.9312C15.5149 34.9555 15.4293 34.9976 15.3543 35.0551C15.2793 35.1125 15.2164 35.1842 15.1691 35.266C15.1219 35.3478 15.0912 35.4381 15.0789 35.5317C15.0665 35.6254 15.0728 35.7205 15.0973 35.8117C15.492 37.2867 15.3891 38.8507 14.8046 40.2614C14.2202 41.672 13.1867 42.8505 11.8644 43.6144C10.5421 44.3783 9.00469 44.6849 7.49042 44.4867C5.97615 44.2885 4.56953 43.5965 3.48848 42.518C2.40744 41.4395 1.71231 40.0346 1.5108 38.5211C1.30928 37.0076 1.61263 35.4698 2.37385 34.1462C3.13506 32.8225 4.31165 31.7867 5.72133 31.1994C7.131 30.612 8.69508 30.5058 10.1712 30.8973C10.3555 30.9463 10.5517 30.9202 10.7167 30.8246C10.8817 30.729 11.002 30.5718 11.051 30.3875C11.1001 30.2033 11.0739 30.0071 10.9783 29.8421C10.8827 29.6772 10.7254 29.557 10.5412 29.5079C8.76095 29.0356 6.87464 29.1635 5.17444 29.8715C3.47424 30.5796 2.05502 31.8285 1.13663 33.4247C0.218239 35.0209 -0.148073 36.8753 0.0944367 38.7007C0.336946 40.5261 1.17474 42.2206 2.47805 43.5218C3.78136 44.8229 5.47744 45.6581 7.30358 45.8979C9.12971 46.1377 10.984 45.7687 12.5792 44.8482C14.1743 43.9277 15.4214 42.507 16.1272 40.8061C16.8329 39.1052 16.958 37.2191 16.4831 35.44C16.4338 35.2565 16.314 35.1 16.1496 35.0047C15.9853 34.9093 15.7899 34.8829 15.6062 34.9312ZM37.6152 29.2281C36.8874 29.228 36.1626 29.322 35.4589 29.5079C35.2753 29.5574 35.1189 29.6775 35.0237 29.842C34.9286 30.0065 34.9025 30.202 34.9511 30.3857C34.9998 30.5695 35.1192 30.7264 35.2834 30.8223C35.4475 30.9181 35.6429 30.9451 35.8269 30.8973C37.303 30.5058 38.8671 30.612 40.2768 31.1994C41.6865 31.7867 42.863 32.8225 43.6243 34.1462C44.3855 35.4698 44.6888 37.0076 44.4873 38.5211C44.2858 40.0346 43.5907 41.4395 42.5096 42.518C41.4286 43.5965 40.022 44.2885 38.5077 44.4867C36.9934 44.6849 35.456 44.3783 34.1337 43.6144C32.8114 42.8505 31.7779 41.672 31.1935 40.2614C30.609 38.8507 30.5061 37.2867 30.9008 35.8117C30.9292 35.7193 30.9386 35.6221 30.9286 35.5259C30.9186 35.4298 30.8892 35.3366 30.8424 35.252C30.7955 35.1674 30.7321 35.0932 30.6559 35.0336C30.5797 34.9741 30.4922 34.9305 30.3988 34.9055C30.3054 34.8806 30.2079 34.8746 30.1121 34.8882C30.0163 34.9017 29.9243 34.9344 29.8414 34.9842C29.7586 35.0341 29.6867 35.1002 29.6299 35.1785C29.5732 35.2568 29.5328 35.3457 29.5112 35.44C29.0568 37.1323 29.1441 38.9244 29.7607 40.5645C30.3773 42.2047 31.4923 43.6106 32.9491 44.5847C34.4059 45.5588 36.1313 46.0522 37.883 45.9956C39.6347 45.939 41.3246 45.3353 42.7155 44.2692C44.1063 43.2031 45.1282 41.7281 45.6376 40.0516C46.147 38.375 46.1184 36.581 45.5557 34.9216C44.993 33.2621 43.9245 31.8206 42.5003 30.7994C41.0761 29.7783 39.3678 29.2288 37.6152 29.2281Z" fill="#1B1B1B" stroke="#1B1B1B" stroke-width="2" mask="url(#path-1-inside-1_8_116)"/>
<mask id="path-2-inside-2_8_116" fill="white">
<path d="M34.4046 38.762C34.5981 39.3039 34.9255 39.7881 35.3565 40.1695C35.7874 40.5509 36.3079 40.8172 36.8694 40.9434C37.4309 41.0696 38.0153 41.0518 38.5681 40.8916C39.1209 40.7313 39.6241 40.4339 40.031 40.0269C40.4379 39.6199 40.7352 39.1166 40.8952 38.5639C41.0552 38.0112 41.0728 37.4269 40.9463 36.8656C40.8198 36.3042 40.5533 35.784 40.1716 35.3533C39.7899 34.9226 39.3055 34.5954 38.7633 34.4023C36.668 33.4071 34.7606 32.0573 33.1252 30.4124C32.1403 29.4489 31.3623 28.2945 30.8389 27.02C30.3156 25.7454 30.0578 24.3776 30.0814 23C30.0581 21.6228 30.316 20.2552 30.8393 18.9811C31.3627 17.7069 32.1405 16.5528 33.1252 15.5895C34.761 13.9438 36.6691 12.5933 38.7652 11.5977C39.3073 11.4043 39.7916 11.0769 40.1731 10.6461C40.5546 10.2152 40.8209 9.69487 40.9471 9.13346C41.0734 8.57205 41.0556 7.98783 40.8953 7.43517C40.735 6.8825 40.4375 6.37936 40.0304 5.97256C39.6234 5.56576 39.12 5.26853 38.5671 5.10852C38.0143 4.94852 37.4299 4.93095 36.8685 5.05744C36.307 5.18393 35.7867 5.45037 35.3559 5.83197C34.9251 6.21357 34.5979 6.69793 34.4046 7.23996C33.4093 9.33483 32.0592 11.2419 30.414 12.8769C29.4502 13.8616 28.2956 14.6394 27.0208 15.1627C25.746 15.686 24.3778 15.9437 23 15.9201C21.6225 15.9434 20.2547 15.6856 18.9802 15.1623C17.7058 14.6391 16.5515 13.8614 15.5879 12.8769C13.9419 11.2415 12.5911 9.33374 11.5954 7.23804C11.402 6.69592 11.0746 6.21153 10.6436 5.82998C10.2126 5.44842 9.69199 5.18211 9.13034 5.05583C8.56868 4.92955 7.9842 4.94741 7.43131 5.10776C6.87842 5.2681 6.37509 5.5657 5.96821 5.97287C5.56132 6.38003 5.26409 6.88351 5.1042 7.43642C4.94431 7.98934 4.92696 8.57372 5.05376 9.13514C5.18056 9.69657 5.44739 10.2168 5.8294 10.6474C6.21141 11.0779 6.69619 11.4049 7.23859 11.5977C9.33315 12.5928 11.2399 13.9423 12.8748 15.5866C13.8599 16.5503 14.6379 17.7048 15.1613 18.9795C15.6846 20.2542 15.9423 21.6223 15.9186 23C15.9419 24.3772 15.684 25.7448 15.1607 27.0189C14.6373 28.2931 13.8595 29.4472 12.8748 30.4105C11.2396 32.0561 9.33213 33.4065 7.23668 34.4023C6.69479 34.5958 6.21066 34.9232 5.82931 35.354C5.44796 35.7848 5.18179 36.305 5.05556 36.8663C4.92933 37.4276 4.94713 38.0117 5.10731 38.5642C5.2675 39.1168 5.56486 39.6198 5.97174 40.0266C6.37862 40.4334 6.8818 40.7307 7.43446 40.8909C7.98713 41.051 8.57134 41.0688 9.13273 40.9426C9.69413 40.8164 10.2145 40.5503 10.6454 40.169C11.0763 39.7878 11.4037 39.3037 11.5973 38.762C12.5926 36.6671 13.9427 34.76 15.5879 33.125C16.5513 32.1402 17.7056 31.3621 18.98 30.8386C20.2545 30.315 21.6223 30.0569 23 30.0799C24.3775 30.0566 25.7453 30.3144 27.0198 30.8377C28.2942 31.3609 29.4485 32.1386 30.4121 33.1231C32.0581 34.7585 33.4089 36.6663 34.4046 38.762ZM37.6161 39.586C37.2257 39.586 36.844 39.4702 36.5193 39.2533C36.1947 39.0364 35.9416 38.7282 35.7922 38.3675C35.6428 38.0068 35.6037 37.61 35.6798 37.2271C35.756 36.8442 35.944 36.4925 36.2201 36.2164C36.4962 35.9404 36.848 35.7524 37.231 35.6762C37.614 35.6001 38.0109 35.6392 38.3717 35.7886C38.7324 35.938 39.0407 36.191 39.2577 36.5155C39.4746 36.8401 39.5904 37.2218 39.5904 37.6122C39.5904 37.8714 39.5393 38.1282 39.44 38.3677C39.3407 38.6073 39.1952 38.8249 39.0118 39.0082C38.8284 39.1915 38.6106 39.3369 38.371 39.436C38.1314 39.5352 37.8755 39.5861 37.6161 39.586ZM37.6161 6.41401C38.0066 6.41401 38.3883 6.52978 38.713 6.74667C39.0376 6.96355 39.2907 7.27182 39.4401 7.6325C39.5895 7.99317 39.6286 8.39004 39.5525 8.77293C39.4763 9.15582 39.2883 9.50752 39.0122 9.78357C38.736 10.0596 38.3843 10.2476 38.0013 10.3238C37.6183 10.3999 37.2214 10.3608 36.8606 10.2114C36.4999 10.062 36.1916 9.80905 35.9746 9.48446C35.7577 9.15986 35.6419 8.77824 35.6419 8.38785C35.6419 7.86452 35.8498 7.36261 36.2198 6.99248C36.5898 6.62234 37.0927 6.41427 37.6161 6.41401ZM8.38577 6.41401C8.7762 6.4142 9.1578 6.53013 9.48234 6.74713C9.80688 6.96413 10.0598 7.27247 10.2091 7.63316C10.3583 7.99385 10.3973 8.39069 10.321 8.77351C10.2447 9.15634 10.0566 9.50795 9.78048 9.7839C9.50433 10.0599 9.15255 10.2477 8.76961 10.3238C8.38667 10.3999 7.98977 10.3608 7.62908 10.2113C7.26838 10.0619 6.96011 9.80893 6.74321 9.48436C6.52632 9.15978 6.41056 8.7782 6.41056 8.38785C6.41056 7.86436 6.61856 7.3623 6.9888 6.99214C7.35905 6.62197 7.86121 6.41401 8.38481 6.41401H8.38577ZM8.38577 39.586C7.9953 39.586 7.6136 39.4702 7.28893 39.2533C6.96427 39.0364 6.71123 38.7282 6.5618 38.3675C6.41237 38.0068 6.37328 37.61 6.44945 37.2271C6.52563 36.8442 6.71366 36.4925 6.98976 36.2164C7.26587 35.9404 7.61764 35.7524 8.00061 35.6762C8.38358 35.6001 8.78053 35.6392 9.14128 35.7886C9.50203 35.938 9.81036 36.191 10.0273 36.5155C10.2442 36.8401 10.36 37.2218 10.36 37.6122C10.36 37.8714 10.3089 38.1282 10.2096 38.3677C10.1104 38.6073 9.96486 38.8249 9.78143 39.0082C9.59801 39.1915 9.38025 39.3369 9.14062 39.436C8.90098 39.5352 8.64415 39.5861 8.38481 39.586H8.38577ZM14.6075 32.072C13.3762 33.2583 12.3067 34.6017 11.4267 36.0676C11.097 35.4247 10.5737 34.9015 9.93067 34.5719C11.3968 33.692 12.7405 32.6227 13.9271 31.3917C15.0327 30.2946 15.906 28.9862 16.4952 27.5445C17.0843 26.1028 17.3771 24.5572 17.3561 23C17.377 21.4427 17.084 19.8971 16.4947 18.4554C15.9054 17.0137 15.0319 15.7053 13.9261 14.6083C12.7396 13.3773 11.3958 12.308 9.92971 11.4281C10.5727 11.0985 11.096 10.5753 11.4257 9.93243C12.3058 11.3983 13.3753 12.7417 14.6066 13.928C15.7041 15.0331 17.0128 15.9062 18.4548 16.4953C19.8967 17.0844 21.4424 17.3776 23 17.3573C24.5576 17.3776 26.1033 17.0844 27.5452 16.4953C28.9872 15.9062 30.2959 15.0331 31.3934 13.928C32.6247 12.7417 33.6942 11.3983 34.5743 9.93243C34.904 10.5753 35.4273 11.0985 36.0703 11.4281C34.6042 12.308 33.2604 13.3773 32.0739 14.6083C30.9686 15.7057 30.0953 17.0141 29.506 18.4557C28.9168 19.8974 28.6236 21.4428 28.6439 23C28.6236 24.5572 28.9168 26.1026 29.506 27.5443C30.0953 28.9859 30.9686 30.2943 32.0739 31.3917C33.2604 32.6227 34.6042 33.692 36.0703 34.5719C35.4273 34.9015 34.904 35.4247 34.5743 36.0676C33.6952 34.6011 32.6256 33.2575 31.3934 32.072C30.2959 30.9669 28.9872 30.0938 27.5452 29.5047C26.1033 28.9156 24.5576 28.6224 23 28.6427C21.4424 28.6224 19.8967 28.9156 18.4548 29.5047C17.0128 30.0938 15.7041 30.9669 14.6066 32.072H14.6075Z"/>
</mask>
<path d="M34.4046 38.762C34.5981 39.3039 34.9255 39.7881 35.3565 40.1695C35.7874 40.5509 36.3079 40.8172 36.8694 40.9434C37.4309 41.0696 38.0153 41.0518 38.5681 40.8916C39.1209 40.7313 39.6241 40.4339 40.031 40.0269C40.4379 39.6199 40.7352 39.1166 40.8952 38.5639C41.0552 38.0112 41.0728 37.4269 40.9463 36.8656C40.8198 36.3042 40.5533 35.784 40.1716 35.3533C39.7899 34.9226 39.3055 34.5954 38.7633 34.4023C36.668 33.4071 34.7606 32.0573 33.1252 30.4124C32.1403 29.4489 31.3623 28.2945 30.8389 27.02C30.3156 25.7454 30.0578 24.3776 30.0814 23C30.0581 21.6228 30.316 20.2552 30.8393 18.9811C31.3627 17.7069 32.1405 16.5528 33.1252 15.5895C34.761 13.9438 36.6691 12.5933 38.7652 11.5977C39.3073 11.4043 39.7916 11.0769 40.1731 10.6461C40.5546 10.2152 40.8209 9.69487 40.9471 9.13346C41.0734 8.57205 41.0556 7.98783 40.8953 7.43517C40.735 6.8825 40.4375 6.37936 40.0304 5.97256C39.6234 5.56576 39.12 5.26853 38.5671 5.10852C38.0143 4.94852 37.4299 4.93095 36.8685 5.05744C36.307 5.18393 35.7867 5.45037 35.3559 5.83197C34.9251 6.21357 34.5979 6.69793 34.4046 7.23996C33.4093 9.33483 32.0592 11.2419 30.414 12.8769C29.4502 13.8616 28.2956 14.6394 27.0208 15.1627C25.746 15.686 24.3778 15.9437 23 15.9201C21.6225 15.9434 20.2547 15.6856 18.9802 15.1623C17.7058 14.6391 16.5515 13.8614 15.5879 12.8769C13.9419 11.2415 12.5911 9.33374 11.5954 7.23804C11.402 6.69592 11.0746 6.21153 10.6436 5.82998C10.2126 5.44842 9.69199 5.18211 9.13034 5.05583C8.56868 4.92955 7.9842 4.94741 7.43131 5.10776C6.87842 5.2681 6.37509 5.5657 5.96821 5.97287C5.56132 6.38003 5.26409 6.88351 5.1042 7.43642C4.94431 7.98934 4.92696 8.57372 5.05376 9.13514C5.18056 9.69657 5.44739 10.2168 5.8294 10.6474C6.21141 11.0779 6.69619 11.4049 7.23859 11.5977C9.33315 12.5928 11.2399 13.9423 12.8748 15.5866C13.8599 16.5503 14.6379 17.7048 15.1613 18.9795C15.6846 20.2542 15.9423 21.6223 15.9186 23C15.9419 24.3772 15.684 25.7448 15.1607 27.0189C14.6373 28.2931 13.8595 29.4472 12.8748 30.4105C11.2396 32.0561 9.33213 33.4065 7.23668 34.4023C6.69479 34.5958 6.21066 34.9232 5.82931 35.354C5.44796 35.7848 5.18179 36.305 5.05556 36.8663C4.92933 37.4276 4.94713 38.0117 5.10731 38.5642C5.2675 39.1168 5.56486 39.6198 5.97174 40.0266C6.37862 40.4334 6.8818 40.7307 7.43446 40.8909C7.98713 41.051 8.57134 41.0688 9.13273 40.9426C9.69413 40.8164 10.2145 40.5503 10.6454 40.169C11.0763 39.7878 11.4037 39.3037 11.5973 38.762C12.5926 36.6671 13.9427 34.76 15.5879 33.125C16.5513 32.1402 17.7056 31.3621 18.98 30.8386C20.2545 30.315 21.6223 30.0569 23 30.0799C24.3775 30.0566 25.7453 30.3144 27.0198 30.8377C28.2942 31.3609 29.4485 32.1386 30.4121 33.1231C32.0581 34.7585 33.4089 36.6663 34.4046 38.762ZM37.6161 39.586C37.2257 39.586 36.844 39.4702 36.5193 39.2533C36.1947 39.0364 35.9416 38.7282 35.7922 38.3675C35.6428 38.0068 35.6037 37.61 35.6798 37.2271C35.756 36.8442 35.944 36.4925 36.2201 36.2164C36.4962 35.9404 36.848 35.7524 37.231 35.6762C37.614 35.6001 38.0109 35.6392 38.3717 35.7886C38.7324 35.938 39.0407 36.191 39.2577 36.5155C39.4746 36.8401 39.5904 37.2218 39.5904 37.6122C39.5904 37.8714 39.5393 38.1282 39.44 38.3677C39.3407 38.6073 39.1952 38.8249 39.0118 39.0082C38.8284 39.1915 38.6106 39.3369 38.371 39.436C38.1314 39.5352 37.8755 39.5861 37.6161 39.586ZM37.6161 6.41401C38.0066 6.41401 38.3883 6.52978 38.713 6.74667C39.0376 6.96355 39.2907 7.27182 39.4401 7.6325C39.5895 7.99317 39.6286 8.39004 39.5525 8.77293C39.4763 9.15582 39.2883 9.50752 39.0122 9.78357C38.736 10.0596 38.3843 10.2476 38.0013 10.3238C37.6183 10.3999 37.2214 10.3608 36.8606 10.2114C36.4999 10.062 36.1916 9.80905 35.9746 9.48446C35.7577 9.15986 35.6419 8.77824 35.6419 8.38785C35.6419 7.86452 35.8498 7.36261 36.2198 6.99248C36.5898 6.62234 37.0927 6.41427 37.6161 6.41401ZM8.38577 6.41401C8.7762 6.4142 9.1578 6.53013 9.48234 6.74713C9.80688 6.96413 10.0598 7.27247 10.2091 7.63316C10.3583 7.99385 10.3973 8.39069 10.321 8.77351C10.2447 9.15634 10.0566 9.50795 9.78048 9.7839C9.50433 10.0599 9.15255 10.2477 8.76961 10.3238C8.38667 10.3999 7.98977 10.3608 7.62908 10.2113C7.26838 10.0619 6.96011 9.80893 6.74321 9.48436C6.52632 9.15978 6.41056 8.7782 6.41056 8.38785C6.41056 7.86436 6.61856 7.3623 6.9888 6.99214C7.35905 6.62197 7.86121 6.41401 8.38481 6.41401H8.38577ZM8.38577 39.586C7.9953 39.586 7.6136 39.4702 7.28893 39.2533C6.96427 39.0364 6.71123 38.7282 6.5618 38.3675C6.41237 38.0068 6.37328 37.61 6.44945 37.2271C6.52563 36.8442 6.71366 36.4925 6.98976 36.2164C7.26587 35.9404 7.61764 35.7524 8.00061 35.6762C8.38358 35.6001 8.78053 35.6392 9.14128 35.7886C9.50203 35.938 9.81036 36.191 10.0273 36.5155C10.2442 36.8401 10.36 37.2218 10.36 37.6122C10.36 37.8714 10.3089 38.1282 10.2096 38.3677C10.1104 38.6073 9.96486 38.8249 9.78143 39.0082C9.59801 39.1915 9.38025 39.3369 9.14062 39.436C8.90098 39.5352 8.64415 39.5861 8.38481 39.586H8.38577ZM14.6075 32.072C13.3762 33.2583 12.3067 34.6017 11.4267 36.0676C11.097 35.4247 10.5737 34.9015 9.93067 34.5719C11.3968 33.692 12.7405 32.6227 13.9271 31.3917C15.0327 30.2946 15.906 28.9862 16.4952 27.5445C17.0843 26.1028 17.3771 24.5572 17.3561 23C17.377 21.4427 17.084 19.8971 16.4947 18.4554C15.9054 17.0137 15.0319 15.7053 13.9261 14.6083C12.7396 13.3773 11.3958 12.308 9.92971 11.4281C10.5727 11.0985 11.096 10.5753 11.4257 9.93243C12.3058 11.3983 13.3753 12.7417 14.6066 13.928C15.7041 15.0331 17.0128 15.9062 18.4548 16.4953C19.8967 17.0844 21.4424 17.3776 23 17.3573C24.5576 17.3776 26.1033 17.0844 27.5452 16.4953C28.9872 15.9062 30.2959 15.0331 31.3934 13.928C32.6247 12.7417 33.6942 11.3983 34.5743 9.93243C34.904 10.5753 35.4273 11.0985 36.0703 11.4281C34.6042 12.308 33.2604 13.3773 32.0739 14.6083C30.9686 15.7057 30.0953 17.0141 29.506 18.4557C28.9168 19.8974 28.6236 21.4428 28.6439 23C28.6236 24.5572 28.9168 26.1026 29.506 27.5443C30.0953 28.9859 30.9686 30.2943 32.0739 31.3917C33.2604 32.6227 34.6042 33.692 36.0703 34.5719C35.4273 34.9015 34.904 35.4247 34.5743 36.0676C33.6952 34.6011 32.6256 33.2575 31.3934 32.072C30.2959 30.9669 28.9872 30.0938 27.5452 29.5047C26.1033 28.9156 24.5576 28.6224 23 28.6427C21.4424 28.6224 19.8967 28.9156 18.4548 29.5047C17.0128 30.0938 15.7041 30.9669 14.6066 32.072H14.6075Z" fill="#1B1B1B" stroke="#1B1B1B" stroke-width="2" mask="url(#path-2-inside-2_8_116)"/>
</g>
<defs>
<clipPath id="clip0_8_116">
<rect width="46" height="46" fill="white"/>
</clipPath>
</defs>
</svg>
