<svg width="46" height="46" viewBox="0 0 46 46" fill="none" xmlns="http://www.w3.org/2000/svg">
<g clip-path="url(#clip0_8_113)">
<path d="M1.59411 3.44128C1.38508 3.60903 1.24568 3.84836 1.20287 4.11297C1.16006 4.37757 1.21688 4.64866 1.36235 4.87379C1.36235 4.87379 7.36715 14.32 9.39688 17.4509C11.1561 20.1645 13.9083 22.0146 16.919 23.1921C17.1406 23.2791 17.7845 23.5906 17.7845 23.5906C17.8604 24.3019 18.0819 24.9901 18.4351 25.6122C18.7883 26.2343 19.2656 26.7771 19.8375 27.2068C20.4094 27.6365 21.0635 27.9439 21.7592 28.11C22.4549 28.2761 23.1774 28.2972 23.8816 28.1721L37.8996 42.1925C38.7485 43.0444 39.8819 43.5529 41.0825 43.6206C42.2831 43.6882 43.4664 43.3102 44.4056 42.5591C44.6146 42.3913 44.754 42.152 44.7968 41.8874C44.8396 41.6228 44.7828 41.3517 44.6373 41.1266C44.6373 41.1266 38.6325 31.6803 36.6028 28.5495C34.8436 25.8359 32.0914 23.9857 29.0807 22.8082C28.8591 22.7213 28.2152 22.4098 28.2152 22.4098C28.1393 21.6984 27.9178 21.0103 27.5646 20.3882C27.2114 19.7661 26.7341 19.2233 26.1622 18.7936C25.5903 18.3639 24.9362 18.0564 24.2405 17.8904C23.5447 17.7243 22.8223 17.7032 22.1181 17.8283L8.1001 3.80783C7.2512 2.95595 6.11781 2.44745 4.9172 2.3798C3.7166 2.31216 2.53328 2.69014 1.59411 3.44128ZM28.7175 23.83C31.6145 24.6047 34.0654 26.6291 35.6931 29.1384C37.7211 32.2675 43.7288 41.7068 43.7288 41.7068C42.9985 42.2912 42.0783 42.5853 41.1447 42.5327C40.211 42.4802 39.3295 42.0847 38.6695 41.4221L25.0709 27.8247C25.9191 27.4591 26.6562 26.8765 27.2081 26.1356C27.7599 25.3947 28.107 24.5216 28.2145 23.604C28.2536 23.6214 28.6852 23.8227 28.7157 23.8311L28.7175 23.83ZM22.9998 18.8349C23.8235 18.8349 24.6287 19.0792 25.3135 19.5368C25.9983 19.9945 26.5321 20.6451 26.8473 21.4062C27.1625 22.1673 27.245 23.0048 27.0843 23.8128C26.9236 24.6208 26.527 25.363 25.9446 25.9455C25.3622 26.528 24.6201 26.9247 23.8123 27.0855C23.0045 27.2462 22.1671 27.1637 21.4062 26.8484C20.6452 26.5332 19.9948 25.9993 19.5372 25.3143C19.0796 24.6293 18.8354 23.824 18.8354 23.0002C18.8366 21.8959 19.2758 20.8371 20.0565 20.0562C20.8372 19.2754 21.8957 18.8361 22.9998 18.8349ZM17.7852 22.3964C17.7446 22.3786 17.3144 22.1791 17.2826 22.1693C14.3855 21.3945 11.9347 19.3702 10.3069 16.8609C8.27899 13.7318 2.27129 4.29245 2.27129 4.29245C3.0015 3.7081 3.92171 3.41399 4.85539 3.46653C5.78908 3.51907 6.6705 3.91456 7.33057 4.57714L20.9288 18.1757C20.0805 18.5413 19.3434 19.1238 18.7916 19.8647C18.2398 20.6056 17.8927 21.4788 17.7852 22.3964Z" fill="#1B1B1B"/>
<path d="M22.9999 24.9923C23.3938 24.9923 23.7789 24.8755 24.1064 24.6566C24.434 24.4377 24.6892 24.1265 24.84 23.7625C24.9907 23.3985 25.0302 22.998 24.9533 22.6115C24.8765 22.2251 24.6868 21.8701 24.4082 21.5915C24.1297 21.3129 23.7748 21.1232 23.3885 21.0463C23.0021 20.9695 22.6016 21.0089 22.2377 21.1597C21.8738 21.3105 21.5627 21.5658 21.3439 21.8934C21.125 22.221 21.0082 22.6062 21.0082 23.0002C21.0088 23.5283 21.2188 24.0347 21.5922 24.4082C21.9656 24.7816 22.4718 24.9917 22.9999 24.9923ZM22.9999 22.0947C23.179 22.0947 23.354 22.1478 23.5029 22.2473C23.6517 22.3468 23.7678 22.4882 23.8363 22.6537C23.9048 22.8191 23.9228 23.0012 23.8878 23.1768C23.8529 23.3525 23.7667 23.5138 23.6401 23.6405C23.5134 23.7671 23.3521 23.8533 23.1765 23.8883C23.0009 23.9232 22.8189 23.9053 22.6534 23.8368C22.488 23.7682 22.3466 23.6522 22.2472 23.5032C22.1477 23.3543 22.0946 23.1793 22.0946 23.0002C22.0946 22.76 22.19 22.5297 22.3597 22.3599C22.5295 22.1901 22.7598 22.0947 22.9999 22.0947ZM35.6957 11.1131C35.7976 11.0112 35.8548 10.873 35.8548 10.729C35.8548 10.5849 35.7976 10.4467 35.6957 10.3448C32.9279 7.56692 29.3256 5.77357 25.441 5.23972C21.5565 4.70587 17.604 5.46097 14.1897 7.38928C14.0643 7.46022 13.9721 7.57809 13.9336 7.71697C13.8951 7.85584 13.9133 8.00434 13.9842 8.1298C14.0551 8.25525 14.173 8.34739 14.3118 8.38594C14.4507 8.42449 14.5991 8.40629 14.7246 8.33535C17.9321 6.52368 21.6452 5.81433 25.2945 6.31607C28.9438 6.81782 32.3278 8.50295 34.9277 11.1131C35.0295 11.2149 35.1677 11.2721 35.3117 11.2721C35.4557 11.2721 35.5939 11.2149 35.6957 11.1131ZM10.3041 34.8873C10.2022 34.9892 10.145 35.1273 10.145 35.2714C10.145 35.4155 10.2022 35.5536 10.3041 35.6555C13.0718 38.4336 16.6741 40.2271 20.5587 40.761C24.4433 41.2949 28.3958 40.5396 31.8101 38.6111C31.9355 38.5401 32.0277 38.4223 32.0662 38.2834C32.1047 38.1445 32.0865 37.996 32.0156 37.8706C31.9447 37.7451 31.8268 37.653 31.688 37.6144C31.5491 37.5759 31.4007 37.5941 31.2752 37.665C28.0678 39.4766 24.3547 40.186 20.7055 39.6842C17.0562 39.1825 13.6723 37.4974 11.0725 34.8873C11.022 34.8368 10.9622 34.7967 10.8962 34.7694C10.8303 34.7421 10.7596 34.728 10.6883 34.728C10.6169 34.728 10.5463 34.7421 10.4803 34.7694C10.4144 34.7967 10.3545 34.8368 10.3041 34.8873ZM22.9999 10.142C21.2917 10.1387 19.6003 10.4798 18.0268 11.1449C17.9596 11.1717 17.8985 11.2116 17.8469 11.2622C17.7953 11.3129 17.7544 11.3734 17.7265 11.4401C17.6986 11.5068 17.6843 11.5784 17.6844 11.6507C17.6846 11.723 17.6991 11.7945 17.7272 11.8611C17.7554 11.9278 17.7965 11.9881 17.8482 12.0386C17.9 12.0891 17.9613 12.1287 18.0285 12.1552C18.0958 12.1817 18.1676 12.1946 18.2399 12.1929C18.3122 12.1913 18.3834 12.1752 18.4494 12.1457C20.1365 11.4365 21.9661 11.1316 23.792 11.2554C25.6179 11.3791 27.3895 11.9281 28.9656 12.8585C29.0895 12.9321 29.2375 12.9534 29.3772 12.9179C29.5168 12.8823 29.6366 12.7927 29.7101 12.6687C29.7837 12.5448 29.805 12.3967 29.7694 12.2571C29.7339 12.1174 29.6443 11.9976 29.5204 11.924C27.5464 10.7549 25.294 10.1394 22.9999 10.142ZM22.9999 35.8583C24.7081 35.8617 26.3995 35.5206 27.973 34.8554C28.0402 34.8287 28.1013 34.7888 28.1529 34.7381C28.2044 34.6874 28.2454 34.627 28.2733 34.5603C28.3012 34.4936 28.3155 34.422 28.3154 34.3497C28.3152 34.2774 28.3007 34.2058 28.2726 34.1392C28.2444 34.0726 28.2033 34.0123 28.1516 33.9618C28.0998 33.9113 28.0385 33.8716 27.9713 33.8451C27.904 33.8186 27.8321 33.8058 27.7599 33.8074C27.6876 33.8091 27.6164 33.8251 27.5504 33.8546C25.8633 34.5639 24.0337 34.8688 22.2078 34.745C20.3819 34.6212 18.6102 34.0722 17.0342 33.1418C16.9103 33.0682 16.7623 33.0469 16.6226 33.0825C16.483 33.1181 16.3632 33.2077 16.2897 33.3316C16.2161 33.4555 16.1948 33.6036 16.2303 33.7433C16.2659 33.8829 16.3555 34.0027 16.4794 34.0763C18.4534 35.2454 20.7058 35.861 22.9999 35.8583Z" fill="#1B1B1B"/>
<path d="M1.00635 16.2741C-0.374902 20.7885 -0.333552 25.6187 1.12478 30.1088C2.58312 34.5988 5.38776 38.5312 9.15784 41.3718C12.9279 44.2124 17.4807 45.8236 22.198 45.9865C26.9153 46.1495 31.5684 44.8564 35.5254 42.2828C35.5863 42.2443 35.6389 42.1941 35.6802 42.1352C35.7215 42.0762 35.7506 42.0096 35.766 41.9393C35.7813 41.8689 35.7825 41.7963 35.7695 41.7255C35.7566 41.6546 35.7296 41.5871 35.6903 41.5268C35.651 41.4665 35.6001 41.4146 35.5406 41.3741C35.4811 41.3337 35.4141 41.3054 35.3436 41.2911C35.273 41.2767 35.2004 41.2765 35.1297 41.2905C35.0591 41.3045 34.992 41.3324 34.9323 41.3726C31.1617 43.8205 26.7296 45.0492 22.2371 44.8921C17.7446 44.735 13.4091 43.1997 9.81866 40.4945C6.22817 37.7892 3.55645 34.0448 2.16584 29.7692C0.775221 25.4936 0.73301 20.8937 2.04493 16.5932C2.08724 16.4555 2.0731 16.3066 2.00563 16.1792C1.97222 16.1162 1.92672 16.0603 1.87174 16.0149C1.81675 15.9694 1.75335 15.9352 1.68515 15.9143C1.54743 15.872 1.39854 15.8861 1.27124 15.9536C1.14394 16.0211 1.04865 16.1364 1.00635 16.2741ZM44.3143 30.086C44.3825 30.107 44.4541 30.1143 44.5252 30.1076C44.5962 30.1009 44.6652 30.0802 44.7283 30.0468C44.7913 30.0134 44.8472 29.9679 44.8926 29.9129C44.9381 29.8579 44.9723 29.7945 44.9933 29.7263C46.3745 25.2119 46.3332 20.3817 44.8748 15.8917C43.4165 11.4016 40.6119 7.46927 36.8418 4.62868C33.0717 1.78809 28.5189 0.176907 23.8016 0.0139263C19.0844 -0.149054 14.4312 1.14407 10.4742 3.71769C10.4133 3.75615 10.3607 3.80632 10.3194 3.86528C10.2781 3.92425 10.249 3.99083 10.2336 4.06117C10.2183 4.13151 10.2171 4.20419 10.2301 4.275C10.2431 4.34581 10.27 4.41334 10.3093 4.47365C10.3486 4.53396 10.3995 4.58586 10.459 4.62632C10.5185 4.66679 10.5855 4.69502 10.6561 4.70937C10.7266 4.72372 10.7993 4.72391 10.8699 4.70993C10.9405 4.69594 11.0076 4.66806 11.0673 4.6279C14.8379 2.18 19.27 0.951264 23.7625 1.10834C28.255 1.26543 32.5905 2.80072 36.181 5.50601C39.7714 8.21129 42.4432 11.9556 43.8338 16.2313C45.2244 20.5069 45.2666 25.1068 43.9547 29.4072C43.9124 29.5449 43.9266 29.6938 43.994 29.8211C44.0614 29.9483 44.1766 30.0436 44.3143 30.086Z" fill="#1B1B1B"/>
</g>
<defs>
<clipPath id="clip0_8_113">
<rect width="46" height="46" fill="white"/>
</clipPath>
</defs>
</svg>
