<svg width="46" height="46" viewBox="0 0 46 46" fill="none" xmlns="http://www.w3.org/2000/svg">
<g clip-path="url(#clip0_35_7)">
<path d="M28.2152 22.4098L27.9975 22.8599L27.9975 22.8599L27.9976 22.86L27.998 22.8602L27.9995 22.8609L28.0051 22.8636L28.0264 22.8738L28.1033 22.9108C28.1679 22.9417 28.2564 22.9839 28.352 23.0289C28.5365 23.1156 28.7689 23.223 28.8981 23.2737L28.8986 23.2739C29.1969 23.3905 29.4922 23.5138 29.7838 23.6438C29.4832 23.5335 29.1769 23.4359 28.8655 23.352C28.8567 23.3482 28.8464 23.3436 28.8345 23.3382C28.7913 23.3189 28.735 23.2932 28.677 23.2666C28.6271 23.2436 28.5738 23.219 28.5284 23.198C28.4736 23.1727 28.4302 23.1527 28.4176 23.1471L27.7969 22.8711L27.7179 23.5458C27.6206 24.3763 27.3065 25.1665 26.8071 25.837C26.3077 26.5075 25.6406 27.0347 24.8729 27.3655L24.1962 27.6572L24.7173 28.1783L38.3153 41.775C39.0623 42.5249 40.0598 42.9725 41.1166 43.032C42.1733 43.0914 43.2148 42.7585 44.0412 42.0972L44.2777 41.908C44.2419 42.0097 44.1783 42.1002 44.0933 42.1686C43.2503 42.8428 42.1882 43.1821 41.1106 43.1213C40.033 43.0606 39.0157 42.6042 38.2538 41.8396L38.2532 41.839L24.2352 27.8185L24.0509 27.6342L23.7942 27.6798C23.1575 27.7929 22.5043 27.7738 21.8753 27.6237C21.2463 27.4735 20.6549 27.1956 20.1378 26.807C19.6208 26.4185 19.1892 25.9278 18.8699 25.3653C18.5506 24.8028 18.3503 24.1807 18.2817 23.5375L18.2522 23.2614L18.0022 23.1405L17.7845 23.5906L18.0022 23.1405L18.0022 23.1404L18.0021 23.1404L18.0017 23.1402L18.0002 23.1395L17.9946 23.1368L17.9733 23.1265L17.8963 23.0896C17.8318 23.0587 17.7433 23.0165 17.6477 22.9715C17.4632 22.8847 17.2308 22.7774 17.1016 22.7267L17.1011 22.7265C16.7975 22.6077 16.497 22.4822 16.2003 22.3496C16.502 22.4608 16.8093 22.5592 17.1219 22.6438C17.122 22.6439 17.1221 22.6439 17.1222 22.644C17.1332 22.6488 17.1473 22.6551 17.1644 22.6627C17.208 22.6822 17.2646 22.708 17.3227 22.7345C17.363 22.753 17.4057 22.7726 17.4448 22.7905C17.5121 22.8214 17.5688 22.8475 17.5848 22.8545L18.2033 23.1251L18.2818 22.4546C18.3791 21.6241 18.6932 20.8339 19.1926 20.1634C19.692 19.4929 20.3591 18.9657 21.1267 18.6348L21.8034 18.3431L21.2824 17.8221L7.6848 4.22426C7.68469 4.22415 7.68458 4.22405 7.68448 4.22394C6.93748 3.47426 5.94006 3.02677 4.88348 2.96732C3.82675 2.90786 2.78529 3.24073 1.95888 3.90207L1.72241 4.0913C1.75833 3.98987 1.82187 3.89968 1.90677 3.83146C2.74969 3.15745 3.81164 2.81831 4.88908 2.87901C5.96667 2.93972 6.98397 3.39613 7.74592 4.16076L7.74651 4.16135L21.7645 18.1818L21.9488 18.3662L22.2055 18.3206C22.8422 18.2075 23.4954 18.2266 24.1244 18.3767C24.7534 18.5268 25.3448 18.8048 25.8618 19.1933C26.3789 19.5818 26.8105 20.0726 27.1298 20.635C27.4491 21.1975 27.6494 21.8197 27.718 22.4629L27.7475 22.739L27.9975 22.8599L28.2152 22.4098ZM1.36235 4.87379L1.78432 4.60555L1.78231 4.60244C1.72534 4.51426 1.69362 4.41298 1.68944 4.30947L1.84947 4.56092L2.27129 4.29245C1.84947 4.56092 1.8495 4.56096 1.84954 4.56103L1.84975 4.56135L1.85057 4.56264L1.85384 4.56778L1.86678 4.58811L1.91746 4.66773L2.11163 4.97271L2.81998 6.08489C3.41493 7.01879 4.22934 8.2966 5.10713 9.67222C6.86228 12.4228 8.8722 15.5665 9.88731 17.1328L9.88743 17.133C10.5279 18.1203 11.2936 19.0382 12.1642 19.8413C11.2631 19.0677 10.4676 18.1833 9.81642 17.1789C8.80281 15.6154 6.79529 12.4729 5.04008 9.71949C4.16272 8.34317 3.34876 7.06468 2.75415 6.13025L2.04623 5.01747L1.85221 4.71236L1.80158 4.63273L1.78866 4.6124L1.7854 4.60727L1.78458 4.60598L1.78437 4.60566C1.78433 4.60559 1.78431 4.60555 1.36235 4.87379ZM44.2174 41.3979C44.274 41.4856 44.3057 41.5862 44.3102 41.6891L44.1506 41.4384L43.7288 41.7068C44.1506 41.4384 44.1506 41.4383 44.1505 41.4382L44.1503 41.4379L44.1495 41.4366L44.1462 41.4315L44.1333 41.4112L44.0826 41.3315L43.8884 41.0266L43.1801 39.9144C42.5851 38.9805 41.7707 37.7027 40.8929 36.3271C39.1378 33.5765 37.1278 30.4328 36.1127 28.8665L36.1126 28.8663C35.4775 27.8872 34.7192 26.9764 33.8576 26.1781C34.7496 26.9472 35.5374 27.8253 36.1833 28.8215C37.1969 30.385 39.2044 33.5275 40.9596 36.2809C41.837 37.6572 42.6509 38.9357 43.2455 39.8701L43.9535 40.9829L44.1475 41.288L44.1981 41.3676L44.211 41.388L44.2143 41.3931L44.2151 41.3944L44.2153 41.3947C44.2154 41.3948 44.2154 41.3948 44.5912 41.1559L44.2154 41.3948L44.2174 41.3979ZM22.9998 18.3349H22.9993C21.7627 18.3363 20.5772 18.8282 19.7029 19.7027C18.8286 20.5772 18.3368 21.7629 18.3354 22.9996V23.0002C18.3354 23.9229 18.6089 24.8249 19.1215 25.5921C19.634 26.3593 20.3625 26.9572 21.2148 27.3104C22.0671 27.6635 23.005 27.7559 23.9099 27.5759C24.8147 27.3958 25.6458 26.9515 26.2982 26.299C26.9505 25.6466 27.3947 24.8153 27.5747 23.9103C27.7547 23.0054 27.6623 22.0673 27.3093 21.2149C26.9562 20.3624 26.3584 19.6338 25.5913 19.1211C24.8243 18.6085 23.9224 18.3349 22.9998 18.3349Z" fill="#1B1B1B" stroke="#1B1B1B"/>
<path d="M34.9277 11.1131L35.2812 10.7595C35.2893 10.7676 35.3003 10.7721 35.3117 10.7721C35.3231 10.7721 35.334 10.7677 35.3421 10.7596C35.3502 10.7515 35.3548 10.7405 35.3548 10.729C35.3548 10.7174 35.3502 10.7064 35.3421 10.6983L35.3415 10.6978C32.6509 7.99732 29.1491 6.25402 25.3729 5.73506C21.5968 5.21611 17.7547 5.95014 14.4356 7.82464L14.1899 7.38961L14.4358 7.82449C14.4258 7.83014 14.4185 7.83955 14.4154 7.85067C14.4123 7.8618 14.4138 7.87369 14.4194 7.88372C14.4251 7.89376 14.4345 7.9011 14.4456 7.90416C14.4566 7.90723 14.4684 7.90578 14.4784 7.90013L14.4787 7.89999C17.7815 6.03451 21.6049 5.30408 25.3626 5.82073C29.1203 6.33738 32.6049 8.07258 35.2819 10.7602L34.9277 11.1131ZM34.9277 11.1131C35.0295 11.2149 35.1677 11.2721 35.3117 11.2721C35.4557 11.2721 35.5939 11.2149 35.6957 11.1131H34.9277ZM29.5204 11.924L29.265 12.3539C29.2749 12.3598 29.2821 12.3694 29.2849 12.3805C29.2878 12.3917 29.2861 12.4036 29.2802 12.4135C29.2743 12.4234 29.2647 12.4305 29.2537 12.4334C29.2425 12.4362 29.2308 12.4345 29.2209 12.4286L29.2198 12.428C27.5766 11.4579 25.7295 10.8855 23.8258 10.7565C21.9221 10.6275 20.0146 10.9454 18.2556 11.6848L18.2556 11.6847L18.2452 11.6893C18.24 11.6916 18.2343 11.6929 18.2286 11.693C18.2229 11.6932 18.2172 11.6922 18.2118 11.6901C18.2065 11.688 18.2016 11.6848 18.1975 11.6808C18.1934 11.6768 18.1901 11.6719 18.1879 11.6666C18.1856 11.6613 18.1844 11.6556 18.1844 11.6498C18.1844 11.644 18.1856 11.6383 18.1878 11.633L17.7265 11.4401L18.1878 11.633C18.19 11.6277 18.1933 11.6229 18.1974 11.6188L17.8469 11.2622L18.1974 11.6188C18.2015 11.6148 18.2064 11.6116 18.2117 11.6095L18.2117 11.6096L18.2215 11.6055C19.7331 10.9665 21.3579 10.6388 22.9989 10.642L23.0005 10.642C25.2047 10.6395 27.3689 11.2309 29.2656 12.3543L29.5204 11.924ZM29.5204 11.924C27.5464 10.7549 25.294 10.1394 22.9999 10.142L18.0285 12.1552C18.0958 12.1817 18.1676 12.1946 18.2399 12.1929C18.3122 12.1913 18.3834 12.1752 18.4494 12.1457C20.1365 11.4365 21.9661 11.1316 23.792 11.2554C25.6179 11.3791 27.3895 11.9281 28.9656 12.8585C29.0895 12.9321 29.2375 12.9534 29.3772 12.9179C29.5168 12.8823 29.6366 12.7927 29.7101 12.6687C29.7837 12.5448 29.805 12.3967 29.7694 12.2571C29.7339 12.1174 29.6443 11.9976 29.5204 11.924ZM16.4794 34.0763L16.7347 33.6464C16.7249 33.6406 16.7177 33.631 16.7149 33.6198C16.712 33.6086 16.7137 33.5968 16.7196 33.5869C16.7255 33.577 16.735 33.5698 16.7461 33.567C16.7572 33.5642 16.769 33.5659 16.7789 33.5717L16.78 33.5724C18.4232 34.5424 20.2703 35.1148 22.174 35.2438C24.0777 35.3729 25.9852 35.055 27.7442 34.3156L27.7442 34.3157L27.7546 34.3111C27.7598 34.3087 27.7655 34.3074 27.7712 34.3073C27.773 34.3073 27.7748 34.3073 27.7766 34.3075C27.7805 34.3079 27.7843 34.3089 27.788 34.3103C27.7933 34.3124 27.7982 34.3156 27.8023 34.3196C27.8064 34.3236 27.8097 34.3284 27.8119 34.3337L28.2726 34.1392L27.8119 34.3337C27.8142 34.339 27.8153 34.3447 27.8154 34.3505C27.8154 34.353 27.8152 34.3555 27.8147 34.3579C27.8142 34.3611 27.8133 34.3643 27.812 34.3673L28.2733 34.5603L27.812 34.3673C27.8098 34.3727 27.8065 34.3775 27.8024 34.3815L27.8024 34.3815C27.7983 34.3856 27.7934 34.3887 27.7881 34.3909L27.7881 34.3907L27.7783 34.3949C26.2667 35.0339 24.6419 35.3615 23.0009 35.3583L22.9993 35.3583C20.7951 35.3609 18.6309 34.7694 16.7342 33.6461L16.4794 34.0763ZM16.4794 34.0763C16.3555 34.0027 16.2659 33.8829 16.2303 33.7433C16.1948 33.6036 16.2161 33.4555 16.2897 33.3316L22.9999 35.8583C20.7058 35.861 18.4534 35.2454 16.4794 34.0763ZM23.2741 24.3787L23.1765 23.8883L23.2741 24.3787C23.5467 24.3244 23.7971 24.1906 23.9936 23.994C24.1902 23.7974 24.324 23.547 24.3782 23.2744C24.4324 23.0017 24.4046 22.7192 24.2983 22.4623C24.1919 22.2055 24.0118 21.986 23.7807 21.8316C23.5496 21.6771 23.2779 21.5947 22.9999 21.5947C22.6272 21.5947 22.2697 21.7428 22.0061 22.0064C21.7426 22.27 21.5946 22.6274 21.5946 23.0002C21.5946 23.2781 21.677 23.5499 21.8314 23.781C21.9858 24.0121 22.2053 24.1923 22.4621 24.2987C22.7189 24.4051 23.0015 24.4329 23.2741 24.3787ZM10.6577 35.2407L10.6578 35.2407C10.6618 35.2367 10.6665 35.2335 10.6718 35.2313L10.4805 34.7699L10.6718 35.2313C10.677 35.2291 10.6826 35.228 10.6883 35.228C10.6939 35.228 10.6995 35.2291 10.7048 35.2313L10.8962 34.7694L10.7048 35.2313C10.71 35.2335 10.7148 35.2367 10.7188 35.2407C13.3957 37.928 16.88 39.663 20.6374 40.1796C24.395 40.6962 28.2184 39.9658 31.5211 38.1004L31.5214 38.1002C31.5314 38.0946 31.5432 38.0931 31.5542 38.0962C31.5653 38.0993 31.5747 38.1066 31.5804 38.1166C31.586 38.1267 31.5875 38.1385 31.5844 38.1497C31.5813 38.1607 31.5741 38.1701 31.5642 38.1757C28.2452 40.0505 24.403 40.7846 20.6268 40.2657C16.8506 39.7467 13.3488 38.0032 10.6583 35.3026L10.6577 35.302C10.6496 35.2939 10.645 35.2829 10.645 35.2714C10.645 35.2599 10.6496 35.2489 10.6577 35.2407ZM23.8286 24.2408C23.5834 24.4047 23.2953 24.4922 23.0004 24.4923H23.0004C22.6048 24.4918 22.2255 24.3345 21.9458 24.0547C21.666 23.7748 21.5086 23.3954 21.5082 22.9996C21.5083 22.7047 21.5958 22.4164 21.7596 22.1712C21.9235 21.9258 22.1565 21.7346 22.4291 21.6216C22.7016 21.5087 23.0016 21.4792 23.2909 21.5367C23.5802 21.5943 23.846 21.7364 24.0547 21.9451C24.2633 22.1537 24.4054 22.4196 24.4629 22.7091C24.5205 22.9985 24.491 23.2986 24.378 23.5712C24.2651 23.8439 24.0739 24.0769 23.8286 24.2408Z" fill="#1B1B1B" stroke="#1B1B1B"/>
<path d="M1.00635 16.2741C-0.374902 20.7885 -0.333552 25.6187 1.12478 30.1088C2.58312 34.5988 5.38776 38.5312 9.15784 41.3718C12.9279 44.2124 17.4807 45.8236 22.198 45.9865C26.9153 46.1495 31.5684 44.8564 35.5254 42.2828C35.5863 42.2443 35.6389 42.1941 35.6802 42.1352C35.7215 42.0762 35.7506 42.0096 35.766 41.9393C35.7813 41.8689 35.7825 41.7963 35.7696 41.7255C35.7566 41.6546 35.7296 41.5871 35.6903 41.5268C35.651 41.4665 35.6001 41.4146 35.5406 41.3741C35.4811 41.3337 35.4141 41.3054 35.3436 41.2911C35.273 41.2767 35.2004 41.2765 35.1297 41.2905C35.0591 41.3045 34.992 41.3324 34.9323 41.3726C31.1617 43.8205 26.7296 45.0492 22.2371 44.8921C17.7446 44.735 13.4091 43.1997 9.81866 40.4945C6.22817 37.7892 3.55645 34.0448 2.16584 29.7692C0.775221 25.4936 0.73301 20.8937 2.04493 16.5932C2.08723 16.4555 2.0731 16.3066 2.00563 16.1792C1.97222 16.1162 1.92672 16.0603 1.87174 16.0149C1.81675 15.9694 1.75335 15.9352 1.68515 15.9143C1.54743 15.872 1.39854 15.8861 1.27124 15.9536C1.14394 16.0211 1.04865 16.1364 1.00635 16.2741ZM44.3143 30.086C44.3825 30.107 44.4541 30.1143 44.5252 30.1076C44.5962 30.1009 44.6652 30.0802 44.7283 30.0468C44.7913 30.0134 44.8472 29.9679 44.8926 29.9129C44.9381 29.8579 44.9723 29.7945 44.9933 29.7263C46.3745 25.2119 46.3332 20.3817 44.8748 15.8917C43.4165 11.4016 40.6119 7.46927 36.8418 4.62868C33.0717 1.78809 28.5189 0.176907 23.8016 0.0139263C19.0844 -0.149054 14.4312 1.14407 10.4742 3.71769C10.4133 3.75615 10.3607 3.80632 10.3194 3.86528C10.2781 3.92425 10.249 3.99083 10.2336 4.06117C10.2183 4.13151 10.2171 4.20419 10.2301 4.275C10.2431 4.34581 10.27 4.41334 10.3093 4.47365C10.3486 4.53396 10.3995 4.58586 10.459 4.62632C10.5185 4.66679 10.5855 4.69502 10.6561 4.70937C10.7266 4.72372 10.7993 4.72391 10.8699 4.70993C10.9405 4.69594 11.0076 4.66806 11.0673 4.6279C14.8379 2.18 19.27 0.951264 23.7625 1.10834C28.255 1.26543 32.5905 2.80072 36.181 5.50601C39.7714 8.21129 42.4432 11.9556 43.8338 16.2313C45.2244 20.5069 45.2666 25.1068 43.9547 29.4072C43.9124 29.5449 43.9266 29.6938 43.994 29.8211C44.0614 29.9483 44.1766 30.0436 44.3143 30.086Z" fill="black"/>
</g>
<defs>
<clipPath id="clip0_35_7">
<rect width="46" height="46" fill="white"/>
</clipPath>
</defs>
</svg>
