<svg width="46" height="47" viewBox="0 0 46 47" fill="none" xmlns="http://www.w3.org/2000/svg">
<path d="M8.38319 34.7334C8.13559 30.8149 9.0517 21.7512 14.6969 16.8445" stroke="black"/>
<path d="M37.8995 34.7334C38.1471 30.8149 37.231 21.7512 31.5858 16.8445" stroke="black"/>
<rect x="15.3027" y="25.0111" width="15.3415" height="21.4889" rx="0.5" stroke="black"/>
<path d="M31.8869 11.7333H35.2295M35.2295 11.7333H38.3149C38.8672 11.7333 39.3149 11.2856 39.3149 10.7333V7.11111C39.3149 6.55883 38.8672 6.11111 38.3149 6.11111H37.2722M35.2295 11.7333V7.11111C35.2295 6.55883 35.6772 6.11111 36.2295 6.11111H37.2722M37.2722 6.11111V2C37.2722 1.44771 37.7199 1 38.2722 1H46H28.9158" stroke="black"/>
<path d="M14.1131 11.7333H10.7705M10.7705 11.7333H7.68511C7.13283 11.7333 6.68511 11.2856 6.68511 10.7333V7.11111C6.68511 6.55883 7.13283 6.11111 7.68511 6.11111H8.72779M10.7705 11.7333V7.11111C10.7705 6.55883 10.3228 6.11111 9.77048 6.11111H8.72779M8.72779 6.11111V2C8.72779 1.44771 8.28008 1 7.72779 1H-3.57032e-05H17.0842" stroke="black"/>
<rect x="14.5598" y="5.5889" width="16.8271" height="12.2889" rx="6.14444" stroke="black"/>
</svg>
