<svg width="65" height="46" viewBox="0 0 65 46" fill="none" xmlns="http://www.w3.org/2000/svg">
<g clip-path="url(#clip0_8_168)">
<mask id="path-1-inside-1_8_168" fill="white">
<path d="M9.63252 37.6212H12.7544V36.6739C12.7544 36.3576 12.9733 36.0822 13.2867 36.0035C14.0439 35.814 14.7712 35.5225 15.4459 35.1348C15.5812 35.0558 15.7398 35.0232 15.8964 35.0422C16.053 35.0612 16.1985 35.1308 16.3096 35.2397L17.0024 35.9131L19.2081 33.7663L18.5183 33.0929C18.4067 32.9853 18.3353 32.8445 18.3154 32.6929C18.2956 32.5413 18.3285 32.3877 18.4088 32.2563C18.8077 31.6005 19.1091 30.8922 19.3055 30.1576C19.3437 30.0091 19.4319 29.8774 19.5561 29.7834C19.6803 29.6893 19.8333 29.6384 19.9908 29.6387H20.9684V26.6029H19.9908C19.8333 26.6036 19.6801 26.5531 19.5556 26.4593C19.4311 26.3655 19.3426 26.2339 19.304 26.0855C19.1078 25.3487 18.8064 24.6423 18.4088 23.9867C18.3275 23.8553 18.294 23.7011 18.3136 23.5489C18.3331 23.3966 18.4047 23.2552 18.5168 23.1472L19.2081 22.4754L17.0024 20.33L16.3096 21.0019C16.198 21.1099 16.0527 21.179 15.8964 21.1983C15.7402 21.2175 15.5817 21.1859 15.4459 21.1083C14.7723 20.7201 14.0453 20.4271 13.2867 20.2382C13.1343 20.1997 12.9993 20.1132 12.9029 19.9921C12.8066 19.871 12.7543 19.7223 12.7544 19.5692V18.6204H9.63252V19.5692C9.63258 19.7223 9.58033 19.871 9.48399 19.9921C9.38764 20.1132 9.25265 20.1997 9.10021 20.2382C8.34162 20.4271 7.61458 20.7201 6.94099 21.1083C6.80527 21.1861 6.64677 21.2179 6.49043 21.1986C6.33408 21.1794 6.18876 21.1102 6.0773 21.0019L5.38605 20.33L3.17885 22.4754L3.8701 23.1472C4.09952 23.3702 4.143 23.7156 3.97806 23.9867C3.57921 24.6426 3.27931 25.3495 3.08289 26.0855C3.04341 26.2334 2.95459 26.3644 2.83032 26.458C2.70606 26.5517 2.55336 26.6026 2.39613 26.6029H1.41849V29.6373H2.39613C2.72002 29.6373 3.00192 29.8515 3.08139 30.1561C3.27632 30.8922 3.57921 31.599 3.97806 32.2549C4.143 32.526 4.09802 32.8714 3.8701 33.0944L3.17885 33.7648L5.38605 35.9131L6.0758 35.2397C6.18699 35.1304 6.33277 35.0606 6.4897 35.0416C6.64663 35.0226 6.80558 35.0554 6.94099 35.1348C7.61575 35.5225 8.34149 35.8154 9.10021 36.0049C9.25291 36.0424 9.38831 36.1285 9.48479 36.2494C9.58128 36.3704 9.63328 36.5193 9.63252 36.6724V37.6212ZM13.4636 39H8.92328C8.73517 39 8.55477 38.9273 8.42176 38.7981C8.28875 38.6688 8.21403 38.4934 8.21403 38.3106V37.1913C7.69378 37.0291 7.18823 36.8253 6.70258 36.5821L5.88837 37.3749C5.75491 37.504 5.57431 37.5764 5.38605 37.5764C5.1978 37.5764 5.0172 37.504 4.88373 37.3749L1.6734 34.2545C1.60675 34.1908 1.55382 34.1148 1.51769 34.0309C1.48157 33.9471 1.46296 33.8571 1.46296 33.7663C1.46296 33.6754 1.48157 33.5854 1.51769 33.5016C1.55382 33.4178 1.60675 33.3418 1.6734 33.278L2.4876 32.4852C2.23727 32.0138 2.02811 31.5229 1.86233 31.0175H0.709244C0.616104 31.0175 0.523877 30.9997 0.437828 30.965C0.351778 30.9304 0.273592 30.8796 0.207733 30.8156C0.141873 30.7516 0.0896308 30.6756 0.053988 30.5919C0.0183451 30.5083 0 30.4186 0 30.3281L0 25.9135C0 25.5331 0.317885 25.2241 0.709244 25.2241H1.86383C2.02977 24.7189 2.23769 24.2296 2.4876 23.7565L1.6734 22.9636C1.60729 22.8996 1.55485 22.8235 1.51906 22.7397C1.48327 22.6559 1.46485 22.5661 1.46485 22.4754C1.46485 22.3846 1.48327 22.2948 1.51906 22.211C1.55485 22.1272 1.60729 22.0511 1.6734 21.9871L4.88373 18.8682C4.94932 18.8034 5.02751 18.7519 5.11375 18.7168C5.19999 18.6817 5.29255 18.6636 5.38605 18.6636C5.47956 18.6636 5.57212 18.6817 5.65836 18.7168C5.7446 18.7519 5.82279 18.8034 5.88837 18.8682L6.70258 19.661C7.1884 19.4162 7.69222 19.2131 8.21403 19.0518V17.9296C8.21403 17.5506 8.53192 17.2402 8.92328 17.2402H13.4636C13.8565 17.2402 14.1744 17.5492 14.1744 17.931V19.0503C14.6942 19.2107 15.1975 19.4142 15.6843 19.661L16.5 18.8667C16.5656 18.8021 16.6437 18.7509 16.7298 18.7159C16.8159 18.6809 16.9083 18.6629 17.0016 18.6629C17.0949 18.6629 17.1873 18.6809 17.2734 18.7159C17.3595 18.7509 17.4376 18.8021 17.5032 18.8667L20.715 21.9886C20.8481 22.1181 20.9229 22.2937 20.9229 22.4768C20.9229 22.6599 20.8481 22.8355 20.715 22.9651L19.8993 23.7565C20.1492 24.2287 20.3576 24.7179 20.5246 25.2241H21.6777C22.069 25.2241 22.3869 25.5331 22.3869 25.9135V30.3281C22.3869 30.511 22.3122 30.6863 22.1792 30.8156C22.0462 30.9449 21.8658 31.0175 21.6777 31.0175H20.5246C20.3588 31.5229 20.1496 32.0138 19.8993 32.4852L20.715 33.2795C20.8481 33.409 20.9229 33.5846 20.9229 33.7677C20.9229 33.9508 20.8481 34.1264 20.715 34.256L17.5032 37.3749C17.3697 37.504 17.1891 37.5764 17.0009 37.5764C16.8126 37.5764 16.632 37.504 16.4985 37.3749L15.6843 36.5821C15.1985 36.8269 14.6952 37.03 14.1744 37.1913V38.3106C14.1744 38.4013 14.156 38.491 14.1202 38.5748C14.0845 38.6585 14.0321 38.7345 13.9661 38.7986C13.9001 38.8626 13.8217 38.9134 13.7355 38.9479C13.6493 38.9825 13.5569 39.0002 13.4636 39Z"/>
</mask>
<path d="M9.63252 37.6212H12.7544V36.6739C12.7544 36.3576 12.9733 36.0822 13.2867 36.0035C14.0439 35.814 14.7712 35.5225 15.4459 35.1348C15.5812 35.0558 15.7398 35.0232 15.8964 35.0422C16.053 35.0612 16.1985 35.1308 16.3096 35.2397L17.0024 35.9131L19.2081 33.7663L18.5183 33.0929C18.4067 32.9853 18.3353 32.8445 18.3154 32.6929C18.2956 32.5413 18.3285 32.3877 18.4088 32.2563C18.8077 31.6005 19.1091 30.8922 19.3055 30.1576C19.3437 30.0091 19.4319 29.8774 19.5561 29.7834C19.6803 29.6893 19.8333 29.6384 19.9908 29.6387H20.9684V26.6029H19.9908C19.8333 26.6036 19.6801 26.5531 19.5556 26.4593C19.4311 26.3655 19.3426 26.2339 19.304 26.0855C19.1078 25.3487 18.8064 24.6423 18.4088 23.9867C18.3275 23.8553 18.294 23.7011 18.3136 23.5489C18.3331 23.3966 18.4047 23.2552 18.5168 23.1472L19.2081 22.4754L17.0024 20.33L16.3096 21.0019C16.198 21.1099 16.0527 21.179 15.8964 21.1983C15.7402 21.2175 15.5817 21.1859 15.4459 21.1083C14.7723 20.7201 14.0453 20.4271 13.2867 20.2382C13.1343 20.1997 12.9993 20.1132 12.9029 19.9921C12.8066 19.871 12.7543 19.7223 12.7544 19.5692V18.6204H9.63252V19.5692C9.63258 19.7223 9.58033 19.871 9.48399 19.9921C9.38764 20.1132 9.25265 20.1997 9.10021 20.2382C8.34162 20.4271 7.61458 20.7201 6.94099 21.1083C6.80527 21.1861 6.64677 21.2179 6.49043 21.1986C6.33408 21.1794 6.18876 21.1102 6.0773 21.0019L5.38605 20.33L3.17885 22.4754L3.8701 23.1472C4.09952 23.3702 4.143 23.7156 3.97806 23.9867C3.57921 24.6426 3.27931 25.3495 3.08289 26.0855C3.04341 26.2334 2.95459 26.3644 2.83032 26.458C2.70606 26.5517 2.55336 26.6026 2.39613 26.6029H1.41849V29.6373H2.39613C2.72002 29.6373 3.00192 29.8515 3.08139 30.1561C3.27632 30.8922 3.57921 31.599 3.97806 32.2549C4.143 32.526 4.09802 32.8714 3.8701 33.0944L3.17885 33.7648L5.38605 35.9131L6.0758 35.2397C6.18699 35.1304 6.33277 35.0606 6.4897 35.0416C6.64663 35.0226 6.80558 35.0554 6.94099 35.1348C7.61575 35.5225 8.34149 35.8154 9.10021 36.0049C9.25291 36.0424 9.38831 36.1285 9.48479 36.2494C9.58128 36.3704 9.63328 36.5193 9.63252 36.6724V37.6212ZM13.4636 39H8.92328C8.73517 39 8.55477 38.9273 8.42176 38.7981C8.28875 38.6688 8.21403 38.4934 8.21403 38.3106V37.1913C7.69378 37.0291 7.18823 36.8253 6.70258 36.5821L5.88837 37.3749C5.75491 37.504 5.57431 37.5764 5.38605 37.5764C5.1978 37.5764 5.0172 37.504 4.88373 37.3749L1.6734 34.2545C1.60675 34.1908 1.55382 34.1148 1.51769 34.0309C1.48157 33.9471 1.46296 33.8571 1.46296 33.7663C1.46296 33.6754 1.48157 33.5854 1.51769 33.5016C1.55382 33.4178 1.60675 33.3418 1.6734 33.278L2.4876 32.4852C2.23727 32.0138 2.02811 31.5229 1.86233 31.0175H0.709244C0.616104 31.0175 0.523877 30.9997 0.437828 30.965C0.351778 30.9304 0.273592 30.8796 0.207733 30.8156C0.141873 30.7516 0.0896308 30.6756 0.053988 30.5919C0.0183451 30.5083 0 30.4186 0 30.3281L0 25.9135C0 25.5331 0.317885 25.2241 0.709244 25.2241H1.86383C2.02977 24.7189 2.23769 24.2296 2.4876 23.7565L1.6734 22.9636C1.60729 22.8996 1.55485 22.8235 1.51906 22.7397C1.48327 22.6559 1.46485 22.5661 1.46485 22.4754C1.46485 22.3846 1.48327 22.2948 1.51906 22.211C1.55485 22.1272 1.60729 22.0511 1.6734 21.9871L4.88373 18.8682C4.94932 18.8034 5.02751 18.7519 5.11375 18.7168C5.19999 18.6817 5.29255 18.6636 5.38605 18.6636C5.47956 18.6636 5.57212 18.6817 5.65836 18.7168C5.7446 18.7519 5.82279 18.8034 5.88837 18.8682L6.70258 19.661C7.1884 19.4162 7.69222 19.2131 8.21403 19.0518V17.9296C8.21403 17.5506 8.53192 17.2402 8.92328 17.2402H13.4636C13.8565 17.2402 14.1744 17.5492 14.1744 17.931V19.0503C14.6942 19.2107 15.1975 19.4142 15.6843 19.661L16.5 18.8667C16.5656 18.8021 16.6437 18.7509 16.7298 18.7159C16.8159 18.6809 16.9083 18.6629 17.0016 18.6629C17.0949 18.6629 17.1873 18.6809 17.2734 18.7159C17.3595 18.7509 17.4376 18.8021 17.5032 18.8667L20.715 21.9886C20.8481 22.1181 20.9229 22.2937 20.9229 22.4768C20.9229 22.6599 20.8481 22.8355 20.715 22.9651L19.8993 23.7565C20.1492 24.2287 20.3576 24.7179 20.5246 25.2241H21.6777C22.069 25.2241 22.3869 25.5331 22.3869 25.9135V30.3281C22.3869 30.511 22.3122 30.6863 22.1792 30.8156C22.0462 30.9449 21.8658 31.0175 21.6777 31.0175H20.5246C20.3588 31.5229 20.1496 32.0138 19.8993 32.4852L20.715 33.2795C20.8481 33.409 20.9229 33.5846 20.9229 33.7677C20.9229 33.9508 20.8481 34.1264 20.715 34.256L17.5032 37.3749C17.3697 37.504 17.1891 37.5764 17.0009 37.5764C16.8126 37.5764 16.632 37.504 16.4985 37.3749L15.6843 36.5821C15.1985 36.8269 14.6952 37.03 14.1744 37.1913V38.3106C14.1744 38.4013 14.156 38.491 14.1202 38.5748C14.0845 38.6585 14.0321 38.7345 13.9661 38.7986C13.9001 38.8626 13.8217 38.9134 13.7355 38.9479C13.6493 38.9825 13.5569 39.0002 13.4636 39Z" fill="#1B1B1B" stroke="#1B1B1B" stroke-width="2" mask="url(#path-1-inside-1_8_168)"/>
<mask id="path-2-inside-2_8_168" fill="white">
<path d="M44.7889 23.1662H20.2128C20.0246 23.1662 19.8442 23.0936 19.7112 22.9643C19.5782 22.835 19.5035 22.6597 19.5035 22.4768C19.5035 22.294 19.5782 22.1187 19.7112 21.9894C19.8442 21.8601 20.0246 21.7875 20.2128 21.7875H44.7889C44.977 21.7875 45.1574 21.8601 45.2904 21.9894C45.4234 22.1187 45.4981 22.294 45.4981 22.4768C45.4981 22.6597 45.4234 22.835 45.2904 22.9643C45.1574 23.0936 44.977 23.1662 44.7889 23.1662ZM11.1935 24.4706C9.12276 24.4706 7.43737 26.1074 7.43737 28.1201C7.43737 30.1329 9.12276 31.771 11.1935 31.771C12.1891 31.7691 13.1433 31.3838 13.8473 30.6996C14.5513 30.0153 14.9477 29.0878 14.9497 28.1201C14.9485 27.1523 14.5523 26.2245 13.8481 25.5403C13.1439 24.8561 12.1892 24.4714 11.1935 24.4706ZM11.1935 33.1512C9.8212 33.1497 8.50556 32.6191 7.53519 31.6759C6.56482 30.7328 6.01897 29.454 6.01738 28.1201C6.01937 26.7866 6.56544 25.5084 7.53581 24.5657C8.50618 23.6231 9.8216 23.093 11.1935 23.0919C12.5654 23.093 13.8808 23.6231 14.8512 24.5657C15.8216 25.5084 16.3677 26.7866 16.3696 28.1201C16.3684 29.4541 15.8227 30.7331 14.8523 31.6764C13.8818 32.6196 12.5659 33.1501 11.1935 33.1512ZM53.8066 24.4706C52.8109 24.4714 51.8562 24.8561 51.152 25.5403C50.4478 26.2245 50.0517 27.1523 50.0505 28.1201C50.0525 29.0878 50.4488 30.0153 51.1528 30.6996C51.8568 31.3838 52.811 31.7691 53.8066 31.771C54.8023 31.7699 55.7568 31.3848 56.4608 30.7003C57.1647 30.0159 57.5605 29.0879 57.5613 28.1201C57.5605 27.1524 57.1646 26.2246 56.4607 25.5404C55.7567 24.8562 54.8022 24.4714 53.8066 24.4706ZM53.8066 33.1512C52.4342 33.1501 51.1183 32.6196 50.1478 31.6764C49.1774 30.7331 48.6317 29.4541 48.6305 28.1201C48.6325 26.7866 49.1785 25.5084 50.1489 24.5657C51.1193 23.6231 52.4347 23.093 53.8066 23.0919C55.1781 23.0934 56.493 23.6237 57.4628 24.5663C58.4326 25.509 58.9782 26.787 58.9797 28.1201C58.9785 29.4536 58.4332 30.7322 57.4634 31.6753C56.4936 32.6185 55.1785 33.1493 53.8066 33.1512ZM17.9681 28.8124C17.7796 28.8124 17.5988 28.7396 17.4655 28.6101C17.3322 28.4805 17.2573 28.3048 17.2573 28.1216C17.2573 27.9383 17.3322 27.7626 17.4655 27.6331C17.5988 27.5035 17.7796 27.4307 17.9681 27.4307C18.1564 27.4307 18.337 27.5034 18.4701 27.6329C18.6033 27.7623 18.6781 27.9378 18.6781 28.1208C18.6781 28.3039 18.6033 28.4794 18.4701 28.6088C18.337 28.7382 18.1564 28.8124 17.9681 28.8124ZM15.9843 33.4675C15.8434 33.4685 15.7055 33.4287 15.5881 33.3531C15.4707 33.2775 15.3792 33.1695 15.3252 33.0431C15.2713 32.9166 15.2574 32.7774 15.2853 32.6432C15.3132 32.509 15.3817 32.386 15.482 32.2899C15.5645 32.2091 15.6663 32.1494 15.7783 32.1161C15.8903 32.0828 16.0091 32.0769 16.124 32.0989C16.2389 32.121 16.3464 32.1703 16.437 32.2425C16.5276 32.3147 16.5984 32.4075 16.6431 32.5128C16.6879 32.618 16.7052 32.7323 16.6935 32.8456C16.6818 32.9589 16.6415 33.0676 16.5761 33.1621C16.5108 33.2566 16.4224 33.3339 16.3189 33.3872C16.2154 33.4405 16.1014 33.4681 15.9843 33.4675ZM11.1935 35.3957C11.0052 35.3959 10.8245 35.3234 10.6913 35.1941C10.558 35.0648 10.483 34.8894 10.4828 34.7063C10.4826 34.5233 10.5572 34.3477 10.6902 34.2181C10.8232 34.0886 11.0037 34.0157 11.192 34.0155C11.3803 34.0155 11.5624 34.0882 11.6956 34.2176C11.8287 34.3471 11.9035 34.5226 11.9035 34.7056C11.9035 34.8886 11.8287 35.0642 11.6956 35.1936C11.5624 35.323 11.3818 35.3957 11.1935 35.3957ZM6.40274 33.4675C6.28623 33.4672 6.17157 33.4391 6.06891 33.3855C5.96624 33.332 5.87874 33.2546 5.81413 33.1604C5.74952 33.0661 5.7098 32.9579 5.69848 32.8451C5.68715 32.7324 5.70457 32.6187 5.7492 32.5141C5.79382 32.4095 5.86428 32.3172 5.95434 32.2453C6.0444 32.1734 6.15128 32.1243 6.26555 32.1021C6.37981 32.0799 6.49794 32.0855 6.60948 32.1182C6.72102 32.151 6.82254 32.2099 6.90506 32.2899C7.00385 32.3866 7.07101 32.5095 7.0981 32.6432C7.12518 32.7769 7.11099 32.9154 7.0573 33.0413C7.00361 33.1671 6.91281 33.2748 6.79635 33.3506C6.67988 33.4264 6.54293 33.4671 6.40274 33.4675ZM4.41896 28.8095C4.27869 28.8095 4.14156 28.769 4.02493 28.6933C3.90829 28.6175 3.81739 28.5099 3.76371 28.3839C3.71002 28.2579 3.69598 28.1193 3.72335 27.9856C3.75071 27.8519 3.81826 27.7291 3.91745 27.6326C4.01664 27.5362 4.14301 27.4706 4.28059 27.444C4.41817 27.4174 4.56078 27.431 4.69038 27.4832C4.81997 27.5354 4.93074 27.6237 5.00868 27.7371C5.08661 27.8505 5.1282 27.9838 5.1282 28.1201C5.1282 28.3029 5.05348 28.4783 4.92047 28.6076C4.78746 28.7369 4.60706 28.8095 4.41896 28.8095ZM6.40274 24.1544C6.26204 24.1551 6.1243 24.115 6.00713 24.0393C5.88995 23.9636 5.79866 23.8556 5.74491 23.7293C5.69116 23.6029 5.67738 23.4638 5.70535 23.3297C5.73332 23.1957 5.80176 23.0728 5.90192 22.9767C6.03515 22.8474 6.21576 22.7749 6.40402 22.775C6.59229 22.7752 6.77279 22.848 6.90581 22.9775C7.03884 23.107 7.11349 23.2825 7.11335 23.4655C7.11321 23.6485 7.03829 23.8239 6.90506 23.9532C6.83919 24.0174 6.76087 24.0682 6.67464 24.1027C6.58842 24.1373 6.496 24.1548 6.40274 24.1544ZM53.7931 22.2247C53.605 22.2247 53.4246 22.1521 53.2916 22.0228C53.1586 21.8935 53.0839 21.7182 53.0839 21.5353C53.0839 21.3525 53.1586 21.1771 53.2916 21.0479C53.4246 20.9186 53.605 20.8459 53.7931 20.8459C53.9812 20.8459 54.1616 20.9186 54.2946 21.0479C54.4276 21.1771 54.5024 21.3525 54.5024 21.5353C54.5024 21.7182 54.4276 21.8935 54.2946 22.0228C54.1616 22.1521 53.9812 22.2247 53.7931 22.2247ZM58.5839 24.1544C58.4906 24.1546 58.3983 24.1369 58.3121 24.1024C58.2258 24.0679 58.1475 24.0172 58.0814 23.9533C58.0153 23.8893 57.9629 23.8134 57.927 23.7297C57.8912 23.646 57.8726 23.5563 57.8724 23.4657C57.8722 23.3751 57.8904 23.2853 57.9259 23.2015C57.9614 23.1177 58.0135 23.0415 58.0793 22.9773C58.1451 22.9131 58.2232 22.8621 58.3093 22.8272C58.3954 22.7924 58.4876 22.7744 58.5809 22.7742C58.7692 22.774 58.9499 22.8465 59.0831 22.9758C59.2164 23.1051 59.2914 23.2805 59.2916 23.4635C59.2918 23.6466 59.2172 23.8222 59.0842 23.9517C58.9512 24.0813 58.7722 24.1542 58.5839 24.1544ZM60.5677 28.8124C60.4279 28.8121 60.2913 28.7716 60.1752 28.696C60.0591 28.6203 59.9686 28.5129 59.9152 28.3874C59.8617 28.2618 59.8478 28.1237 59.875 27.9904C59.9022 27.8572 59.9695 27.7347 60.0682 27.6386C60.1669 27.5424 60.2928 27.4768 60.4298 27.45C60.5669 27.4233 60.709 27.4366 60.8383 27.4882C60.9676 27.5399 61.0782 27.6276 61.1563 27.7403C61.2343 27.853 61.2763 27.9857 61.2769 28.1216C61.2769 28.5005 60.9605 28.8124 60.5677 28.8124ZM58.5839 33.4675C58.4501 33.4678 58.3189 33.4313 58.2055 33.3622C58.0921 33.2931 58.0012 33.1942 57.9432 33.077C57.8852 32.9598 57.8624 32.829 57.8776 32.6998C57.8928 32.5706 57.9453 32.4482 58.0291 32.3467C58.1041 32.2559 58.2016 32.185 58.3124 32.1406C58.4232 32.0963 58.5438 32.08 58.6629 32.0932C58.7819 32.1064 58.8956 32.1488 58.9933 32.2163C59.091 32.2838 59.1694 32.3743 59.2214 32.4792C59.2734 32.5842 59.2971 32.7003 59.2904 32.8166C59.2837 32.9329 59.2468 33.0456 59.1832 33.1443C59.1195 33.243 59.0312 33.3244 58.9264 33.3809C58.8216 33.4375 58.7037 33.4672 58.5839 33.4675ZM53.7931 35.3957C53.6971 35.4 53.6013 35.3853 53.5113 35.3526C53.4213 35.3198 53.3391 35.2697 53.2696 35.2052C53.2001 35.1407 53.1448 35.0632 53.107 34.9773C53.0692 34.8914 53.0497 34.799 53.0497 34.7056C53.0497 34.6122 53.0692 34.5198 53.107 34.4339C53.1448 34.3481 53.2001 34.2705 53.2696 34.206C53.3391 34.1415 53.4213 34.0914 53.5113 34.0586C53.6013 34.0259 53.6971 34.0112 53.7931 34.0155C53.9814 34.0155 54.162 34.0882 54.2952 34.2176C54.4283 34.3471 54.5031 34.5226 54.5031 34.7056C54.5031 34.8886 54.4283 35.0642 54.2952 35.1936C54.162 35.323 53.9814 35.3957 53.7931 35.3957ZM49.0023 33.4675C48.8852 33.4681 48.7698 33.4405 48.6662 33.3872C48.5627 33.3339 48.4744 33.2566 48.409 33.1621C48.3437 33.0676 48.3033 32.9589 48.2917 32.8456C48.28 32.7323 48.2973 32.618 48.342 32.5128C48.3868 32.4075 48.4576 32.3147 48.5481 32.2425C48.6387 32.1703 48.7462 32.121 48.8612 32.0989C48.9761 32.0769 49.0948 32.0828 49.2068 32.1161C49.3188 32.1494 49.4206 32.2091 49.5032 32.2899C49.602 32.3866 49.6706 32.5095 49.6977 32.6432C49.7248 32.7769 49.7106 32.9154 49.6569 33.0413C49.6032 33.1671 49.5124 33.2748 49.396 33.3506C49.2795 33.4264 49.1425 33.4671 49.0023 33.4675ZM47.0186 28.8095C46.8783 28.8095 46.7412 28.769 46.6245 28.6933C46.5079 28.6175 46.417 28.5099 46.3633 28.3839C46.3096 28.2579 46.2956 28.1193 46.323 27.9856C46.3503 27.8519 46.4179 27.7291 46.5171 27.6326C46.6162 27.5362 46.7426 27.4706 46.8802 27.444C47.0178 27.4174 47.1604 27.431 47.29 27.4832C47.4196 27.5354 47.5303 27.6237 47.6083 27.7371C47.6862 27.8505 47.7278 27.9838 47.7278 28.1201C47.7278 28.3029 47.6531 28.4783 47.5201 28.6076C47.3871 28.7369 47.2067 28.8095 47.0186 28.8095ZM49.0023 24.1544C48.8886 24.1547 48.7764 24.1285 48.6752 24.078C48.574 24.0274 48.4868 23.954 48.4209 23.8639C48.3549 23.7738 48.3122 23.6696 48.2963 23.5601C48.2804 23.4506 48.2918 23.339 48.3295 23.2347C48.3672 23.1303 48.4301 23.0363 48.5129 22.9605C48.5957 22.8847 48.6961 22.8294 48.8055 22.7991C48.9149 22.7688 49.0302 22.7645 49.1417 22.7866C49.2532 22.8086 49.3576 22.8563 49.4462 22.9257C49.5614 23.0149 49.6452 23.1367 49.6859 23.2743C49.7267 23.4118 49.7223 23.5583 49.6735 23.6934C49.6247 23.8284 49.5339 23.9454 49.4136 24.028C49.2934 24.1106 49.1496 24.1548 49.0023 24.1544Z"/>
</mask>
<path d="M44.7889 23.1662H20.2128C20.0246 23.1662 19.8442 23.0936 19.7112 22.9643C19.5782 22.835 19.5035 22.6597 19.5035 22.4768C19.5035 22.294 19.5782 22.1187 19.7112 21.9894C19.8442 21.8601 20.0246 21.7875 20.2128 21.7875H44.7889C44.977 21.7875 45.1574 21.8601 45.2904 21.9894C45.4234 22.1187 45.4981 22.294 45.4981 22.4768C45.4981 22.6597 45.4234 22.835 45.2904 22.9643C45.1574 23.0936 44.977 23.1662 44.7889 23.1662ZM11.1935 24.4706C9.12276 24.4706 7.43737 26.1074 7.43737 28.1201C7.43737 30.1329 9.12276 31.771 11.1935 31.771C12.1891 31.7691 13.1433 31.3838 13.8473 30.6996C14.5513 30.0153 14.9477 29.0878 14.9497 28.1201C14.9485 27.1523 14.5523 26.2245 13.8481 25.5403C13.1439 24.8561 12.1892 24.4714 11.1935 24.4706ZM11.1935 33.1512C9.8212 33.1497 8.50556 32.6191 7.53519 31.6759C6.56482 30.7328 6.01897 29.454 6.01738 28.1201C6.01937 26.7866 6.56544 25.5084 7.53581 24.5657C8.50618 23.6231 9.8216 23.093 11.1935 23.0919C12.5654 23.093 13.8808 23.6231 14.8512 24.5657C15.8216 25.5084 16.3677 26.7866 16.3696 28.1201C16.3684 29.4541 15.8227 30.7331 14.8523 31.6764C13.8818 32.6196 12.5659 33.1501 11.1935 33.1512ZM53.8066 24.4706C52.8109 24.4714 51.8562 24.8561 51.152 25.5403C50.4478 26.2245 50.0517 27.1523 50.0505 28.1201C50.0525 29.0878 50.4488 30.0153 51.1528 30.6996C51.8568 31.3838 52.811 31.7691 53.8066 31.771C54.8023 31.7699 55.7568 31.3848 56.4608 30.7003C57.1647 30.0159 57.5605 29.0879 57.5613 28.1201C57.5605 27.1524 57.1646 26.2246 56.4607 25.5404C55.7567 24.8562 54.8022 24.4714 53.8066 24.4706ZM53.8066 33.1512C52.4342 33.1501 51.1183 32.6196 50.1478 31.6764C49.1774 30.7331 48.6317 29.4541 48.6305 28.1201C48.6325 26.7866 49.1785 25.5084 50.1489 24.5657C51.1193 23.6231 52.4347 23.093 53.8066 23.0919C55.1781 23.0934 56.493 23.6237 57.4628 24.5663C58.4326 25.509 58.9782 26.787 58.9797 28.1201C58.9785 29.4536 58.4332 30.7322 57.4634 31.6753C56.4936 32.6185 55.1785 33.1493 53.8066 33.1512ZM17.9681 28.8124C17.7796 28.8124 17.5988 28.7396 17.4655 28.6101C17.3322 28.4805 17.2573 28.3048 17.2573 28.1216C17.2573 27.9383 17.3322 27.7626 17.4655 27.6331C17.5988 27.5035 17.7796 27.4307 17.9681 27.4307C18.1564 27.4307 18.337 27.5034 18.4701 27.6329C18.6033 27.7623 18.6781 27.9378 18.6781 28.1208C18.6781 28.3039 18.6033 28.4794 18.4701 28.6088C18.337 28.7382 18.1564 28.8124 17.9681 28.8124ZM15.9843 33.4675C15.8434 33.4685 15.7055 33.4287 15.5881 33.3531C15.4707 33.2775 15.3792 33.1695 15.3252 33.0431C15.2713 32.9166 15.2574 32.7774 15.2853 32.6432C15.3132 32.509 15.3817 32.386 15.482 32.2899C15.5645 32.2091 15.6663 32.1494 15.7783 32.1161C15.8903 32.0828 16.0091 32.0769 16.124 32.0989C16.2389 32.121 16.3464 32.1703 16.437 32.2425C16.5276 32.3147 16.5984 32.4075 16.6431 32.5128C16.6879 32.618 16.7052 32.7323 16.6935 32.8456C16.6818 32.9589 16.6415 33.0676 16.5761 33.1621C16.5108 33.2566 16.4224 33.3339 16.3189 33.3872C16.2154 33.4405 16.1014 33.4681 15.9843 33.4675ZM11.1935 35.3957C11.0052 35.3959 10.8245 35.3234 10.6913 35.1941C10.558 35.0648 10.483 34.8894 10.4828 34.7063C10.4826 34.5233 10.5572 34.3477 10.6902 34.2181C10.8232 34.0886 11.0037 34.0157 11.192 34.0155C11.3803 34.0155 11.5624 34.0882 11.6956 34.2176C11.8287 34.3471 11.9035 34.5226 11.9035 34.7056C11.9035 34.8886 11.8287 35.0642 11.6956 35.1936C11.5624 35.323 11.3818 35.3957 11.1935 35.3957ZM6.40274 33.4675C6.28623 33.4672 6.17157 33.4391 6.06891 33.3855C5.96624 33.332 5.87874 33.2546 5.81413 33.1604C5.74952 33.0661 5.7098 32.9579 5.69848 32.8451C5.68715 32.7324 5.70457 32.6187 5.7492 32.5141C5.79382 32.4095 5.86428 32.3172 5.95434 32.2453C6.0444 32.1734 6.15128 32.1243 6.26555 32.1021C6.37981 32.0799 6.49794 32.0855 6.60948 32.1182C6.72102 32.151 6.82254 32.2099 6.90506 32.2899C7.00385 32.3866 7.07101 32.5095 7.0981 32.6432C7.12518 32.7769 7.11099 32.9154 7.0573 33.0413C7.00361 33.1671 6.91281 33.2748 6.79635 33.3506C6.67988 33.4264 6.54293 33.4671 6.40274 33.4675ZM4.41896 28.8095C4.27869 28.8095 4.14156 28.769 4.02493 28.6933C3.90829 28.6175 3.81739 28.5099 3.76371 28.3839C3.71002 28.2579 3.69598 28.1193 3.72335 27.9856C3.75071 27.8519 3.81826 27.7291 3.91745 27.6326C4.01664 27.5362 4.14301 27.4706 4.28059 27.444C4.41817 27.4174 4.56078 27.431 4.69038 27.4832C4.81997 27.5354 4.93074 27.6237 5.00868 27.7371C5.08661 27.8505 5.1282 27.9838 5.1282 28.1201C5.1282 28.3029 5.05348 28.4783 4.92047 28.6076C4.78746 28.7369 4.60706 28.8095 4.41896 28.8095ZM6.40274 24.1544C6.26204 24.1551 6.1243 24.115 6.00713 24.0393C5.88995 23.9636 5.79866 23.8556 5.74491 23.7293C5.69116 23.6029 5.67738 23.4638 5.70535 23.3297C5.73332 23.1957 5.80176 23.0728 5.90192 22.9767C6.03515 22.8474 6.21576 22.7749 6.40402 22.775C6.59229 22.7752 6.77279 22.848 6.90581 22.9775C7.03884 23.107 7.11349 23.2825 7.11335 23.4655C7.11321 23.6485 7.03829 23.8239 6.90506 23.9532C6.83919 24.0174 6.76087 24.0682 6.67464 24.1027C6.58842 24.1373 6.496 24.1548 6.40274 24.1544ZM53.7931 22.2247C53.605 22.2247 53.4246 22.1521 53.2916 22.0228C53.1586 21.8935 53.0839 21.7182 53.0839 21.5353C53.0839 21.3525 53.1586 21.1771 53.2916 21.0479C53.4246 20.9186 53.605 20.8459 53.7931 20.8459C53.9812 20.8459 54.1616 20.9186 54.2946 21.0479C54.4276 21.1771 54.5024 21.3525 54.5024 21.5353C54.5024 21.7182 54.4276 21.8935 54.2946 22.0228C54.1616 22.1521 53.9812 22.2247 53.7931 22.2247ZM58.5839 24.1544C58.4906 24.1546 58.3983 24.1369 58.3121 24.1024C58.2258 24.0679 58.1475 24.0172 58.0814 23.9533C58.0153 23.8893 57.9629 23.8134 57.927 23.7297C57.8912 23.646 57.8726 23.5563 57.8724 23.4657C57.8722 23.3751 57.8904 23.2853 57.9259 23.2015C57.9614 23.1177 58.0135 23.0415 58.0793 22.9773C58.1451 22.9131 58.2232 22.8621 58.3093 22.8272C58.3954 22.7924 58.4876 22.7744 58.5809 22.7742C58.7692 22.774 58.9499 22.8465 59.0831 22.9758C59.2164 23.1051 59.2914 23.2805 59.2916 23.4635C59.2918 23.6466 59.2172 23.8222 59.0842 23.9517C58.9512 24.0813 58.7722 24.1542 58.5839 24.1544ZM60.5677 28.8124C60.4279 28.8121 60.2913 28.7716 60.1752 28.696C60.0591 28.6203 59.9686 28.5129 59.9152 28.3874C59.8617 28.2618 59.8478 28.1237 59.875 27.9904C59.9022 27.8572 59.9695 27.7347 60.0682 27.6386C60.1669 27.5424 60.2928 27.4768 60.4298 27.45C60.5669 27.4233 60.709 27.4366 60.8383 27.4882C60.9676 27.5399 61.0782 27.6276 61.1563 27.7403C61.2343 27.853 61.2763 27.9857 61.2769 28.1216C61.2769 28.5005 60.9605 28.8124 60.5677 28.8124ZM58.5839 33.4675C58.4501 33.4678 58.3189 33.4313 58.2055 33.3622C58.0921 33.2931 58.0012 33.1942 57.9432 33.077C57.8852 32.9598 57.8624 32.829 57.8776 32.6998C57.8928 32.5706 57.9453 32.4482 58.0291 32.3467C58.1041 32.2559 58.2016 32.185 58.3124 32.1406C58.4232 32.0963 58.5438 32.08 58.6629 32.0932C58.7819 32.1064 58.8956 32.1488 58.9933 32.2163C59.091 32.2838 59.1694 32.3743 59.2214 32.4792C59.2734 32.5842 59.2971 32.7003 59.2904 32.8166C59.2837 32.9329 59.2468 33.0456 59.1832 33.1443C59.1195 33.243 59.0312 33.3244 58.9264 33.3809C58.8216 33.4375 58.7037 33.4672 58.5839 33.4675ZM53.7931 35.3957C53.6971 35.4 53.6013 35.3853 53.5113 35.3526C53.4213 35.3198 53.3391 35.2697 53.2696 35.2052C53.2001 35.1407 53.1448 35.0632 53.107 34.9773C53.0692 34.8914 53.0497 34.799 53.0497 34.7056C53.0497 34.6122 53.0692 34.5198 53.107 34.4339C53.1448 34.3481 53.2001 34.2705 53.2696 34.206C53.3391 34.1415 53.4213 34.0914 53.5113 34.0586C53.6013 34.0259 53.6971 34.0112 53.7931 34.0155C53.9814 34.0155 54.162 34.0882 54.2952 34.2176C54.4283 34.3471 54.5031 34.5226 54.5031 34.7056C54.5031 34.8886 54.4283 35.0642 54.2952 35.1936C54.162 35.323 53.9814 35.3957 53.7931 35.3957ZM49.0023 33.4675C48.8852 33.4681 48.7698 33.4405 48.6662 33.3872C48.5627 33.3339 48.4744 33.2566 48.409 33.1621C48.3437 33.0676 48.3033 32.9589 48.2917 32.8456C48.28 32.7323 48.2973 32.618 48.342 32.5128C48.3868 32.4075 48.4576 32.3147 48.5481 32.2425C48.6387 32.1703 48.7462 32.121 48.8612 32.0989C48.9761 32.0769 49.0948 32.0828 49.2068 32.1161C49.3188 32.1494 49.4206 32.2091 49.5032 32.2899C49.602 32.3866 49.6706 32.5095 49.6977 32.6432C49.7248 32.7769 49.7106 32.9154 49.6569 33.0413C49.6032 33.1671 49.5124 33.2748 49.396 33.3506C49.2795 33.4264 49.1425 33.4671 49.0023 33.4675ZM47.0186 28.8095C46.8783 28.8095 46.7412 28.769 46.6245 28.6933C46.5079 28.6175 46.417 28.5099 46.3633 28.3839C46.3096 28.2579 46.2956 28.1193 46.323 27.9856C46.3503 27.8519 46.4179 27.7291 46.5171 27.6326C46.6162 27.5362 46.7426 27.4706 46.8802 27.444C47.0178 27.4174 47.1604 27.431 47.29 27.4832C47.4196 27.5354 47.5303 27.6237 47.6083 27.7371C47.6862 27.8505 47.7278 27.9838 47.7278 28.1201C47.7278 28.3029 47.6531 28.4783 47.5201 28.6076C47.3871 28.7369 47.2067 28.8095 47.0186 28.8095ZM49.0023 24.1544C48.8886 24.1547 48.7764 24.1285 48.6752 24.078C48.574 24.0274 48.4868 23.954 48.4209 23.8639C48.3549 23.7738 48.3122 23.6696 48.2963 23.5601C48.2804 23.4506 48.2918 23.339 48.3295 23.2347C48.3672 23.1303 48.4301 23.0363 48.5129 22.9605C48.5957 22.8847 48.6961 22.8294 48.8055 22.7991C48.9149 22.7688 49.0302 22.7645 49.1417 22.7866C49.2532 22.8086 49.3576 22.8563 49.4462 22.9257C49.5614 23.0149 49.6452 23.1367 49.6859 23.2743C49.7267 23.4118 49.7223 23.5583 49.6735 23.6934C49.6247 23.8284 49.5339 23.9454 49.4136 24.028C49.2934 24.1106 49.1496 24.1548 49.0023 24.1544Z" fill="#1B1B1B" stroke="#1B1B1B" stroke-width="2" mask="url(#path-2-inside-2_8_168)"/>
<path fill-rule="evenodd" clip-rule="evenodd" d="M28.1494 19.0343H35.3738C35.5258 19.0349 35.674 18.9876 35.7961 18.8996C35.9183 18.8117 36.0079 18.6876 36.0515 18.5461L36.5613 16.9327H46.7907C46.9788 16.9327 47.1592 16.86 47.2922 16.7308C47.4252 16.6015 47.4999 16.4261 47.4999 16.2433C47.4999 16.0605 47.4252 15.8851 47.2922 15.7558C47.1592 15.6265 46.9788 15.5539 46.7907 15.5539H36.038C35.8859 15.5529 35.7376 15.5998 35.6152 15.6876C35.4927 15.7753 35.4028 15.8992 35.3588 16.0407L34.849 17.6541H28.6742L28.1644 16.0407C28.0729 15.7521 27.7985 15.5539 27.4851 15.5539H16.7715C16.5834 15.5539 16.403 15.6265 16.27 15.7558C16.137 15.8851 16.0623 16.0605 16.0623 16.2433C16.0623 16.4261 16.137 16.6015 16.27 16.7308C16.403 16.86 16.5834 16.9327 16.7715 16.9327H26.9618L27.4716 18.5461C27.5153 18.6876 27.6049 18.8117 27.727 18.8996C27.8492 18.9876 27.9973 19.0349 28.1494 19.0343ZM55.3675 37.6212H52.2457V36.6724C52.2457 36.3576 52.0268 36.0822 51.7119 36.0049C50.9546 35.8155 50.2289 35.5225 49.5542 35.1348C49.4189 35.0558 49.2602 35.0232 49.1036 35.0422C48.947 35.0612 48.8016 35.1308 48.6905 35.2398L47.9992 35.9131L45.7905 33.7648L46.4818 33.0944C46.7112 32.8714 46.7562 32.526 46.5912 32.2549C46.1909 31.599 45.891 30.8922 45.696 30.1562C45.6151 29.8515 45.3317 29.6373 45.0078 29.6373H44.0331V26.6029H45.0078C45.1655 26.604 45.3191 26.5536 45.4439 26.4597C45.5687 26.3659 45.6575 26.2342 45.696 26.0855C45.8923 25.3488 46.1936 24.6423 46.5912 23.9868C46.7562 23.7157 46.7112 23.3702 46.4818 23.1473L45.7905 22.4754L47.9992 20.33L48.6905 21.0019C48.8013 21.1107 48.9464 21.1804 49.1027 21.1996C49.259 21.2189 49.4174 21.1868 49.5527 21.1083C50.2289 20.7191 50.9546 20.4276 51.7119 20.2382C51.8645 20.1998 51.9996 20.1133 52.0962 19.9922C52.1928 19.8712 52.2454 19.7224 52.2457 19.5692V18.6204H55.3675V19.5692C55.3675 19.7223 55.4197 19.871 55.5161 19.9921C55.6124 20.1132 55.7474 20.1997 55.8999 20.2382C56.6585 20.4271 57.3855 20.7201 58.0591 21.1083C58.1948 21.1861 58.3533 21.2179 58.5096 21.1987C58.666 21.1794 58.8113 21.1102 58.9228 21.0019L59.6155 20.33L61.8212 22.4754L61.13 23.1473C61.0186 23.2556 60.9473 23.3968 60.9275 23.5488C60.9077 23.7008 60.9404 23.8548 61.0205 23.9868C61.4181 24.6423 61.7194 25.3488 61.9157 26.0855C61.9552 26.2337 62.0443 26.3649 62.1688 26.4585C62.2934 26.5522 62.4465 26.6029 62.6039 26.6029H63.5816V29.6388H62.6039C62.4466 29.6394 62.2938 29.6906 62.1696 29.7845C62.0454 29.8783 61.9566 30.0095 61.9172 30.1576C61.7208 30.8922 61.4194 31.6005 61.0205 32.2563C60.9403 32.3878 60.9077 32.5416 60.9278 32.6932C60.9479 32.8448 61.0196 32.9855 61.1315 33.0929L61.8212 33.7663L59.6155 35.9131L58.9228 35.2398C58.8117 35.1308 58.6662 35.0612 58.5096 35.0422C58.353 35.0232 58.1943 35.0558 58.0591 35.1348C57.3845 35.5208 56.6577 35.8132 55.8999 36.0035C55.5865 36.0822 55.3675 36.3576 55.3675 36.6739V37.6212ZM51.5364 39H56.0768C56.1701 39.0002 56.2624 38.9825 56.3487 38.9479C56.4349 38.9134 56.5133 38.8626 56.5793 38.7986C56.6453 38.7346 56.6977 38.6585 56.7334 38.5748C56.7691 38.491 56.7875 38.4013 56.7875 38.3106V37.1913C57.3074 37.031 57.8102 36.8279 58.296 36.5821L59.1117 37.3749C59.1776 37.4392 59.2559 37.4902 59.3421 37.5249C59.4283 37.5597 59.5207 37.5776 59.614 37.5776C59.7074 37.5776 59.7998 37.5597 59.886 37.5249C59.9722 37.4902 60.0504 37.4392 60.1163 37.3749L63.3267 34.256C63.3928 34.1919 63.4452 34.1158 63.481 34.0321C63.5168 33.9483 63.5352 33.8584 63.5352 33.7677C63.5352 33.677 63.5168 33.5872 63.481 33.5034C63.4452 33.4196 63.3928 33.3435 63.3267 33.2795L62.511 32.4852C62.7629 32.0139 62.9718 31.5247 63.1377 31.0175H64.2908C64.4788 31.0171 64.659 30.9444 64.7919 30.8152C64.9248 30.686 64.9997 30.5109 65.0001 30.3281V25.9135C65.0001 25.5331 64.6822 25.2241 64.2908 25.2241H63.1377C62.9718 24.7179 62.7629 24.2287 62.511 23.7565L63.3267 22.9651C63.4598 22.8355 63.5346 22.6599 63.5346 22.4768C63.5346 22.2937 63.4598 22.1181 63.3267 21.9886L60.1163 18.8667C60.0504 18.8025 59.9722 18.7515 59.886 18.7167C59.7998 18.6819 59.7074 18.664 59.614 18.664C59.5207 18.664 59.4283 18.6819 59.3421 18.7167C59.2559 18.7515 59.1776 18.8025 59.1117 18.8667L58.296 19.661C57.8102 19.4142 57.3074 19.2107 56.7875 19.0503V17.931C56.7875 17.5492 56.4697 17.2402 56.0768 17.2402H51.5364C51.1436 17.2402 50.8257 17.5506 50.8257 17.9296V19.0518C50.3049 19.2131 49.8016 19.4162 49.3157 19.661L48.5 18.8682C48.4345 18.8034 48.3563 18.7519 48.27 18.7168C48.1838 18.6817 48.0912 18.6636 47.9977 18.6636C47.9042 18.6636 47.8116 18.6817 47.7254 18.7168C47.6392 18.7519 47.561 18.8034 47.4954 18.8682L44.2851 21.9871C44.219 22.0512 44.1665 22.1273 44.1307 22.211C44.0949 22.2948 44.0765 22.3847 44.0765 22.4754C44.0765 22.5661 44.0949 22.6559 44.1307 22.7397C44.1665 22.8235 44.219 22.8996 44.2851 22.9636L45.1008 23.7565C44.8499 24.2297 44.6409 24.7189 44.474 25.2241H43.3224C42.928 25.2241 42.6132 25.5331 42.6132 25.9135V30.3281C42.6132 30.511 42.6879 30.6863 42.8209 30.8156C42.9539 30.9449 43.1343 31.0175 43.3224 31.0175H44.474C44.6403 31.5229 44.8499 32.0139 45.1008 32.4852L44.2851 33.278C44.1521 33.4078 44.0776 33.5835 44.0779 33.7666C44.0782 33.9497 44.1532 34.1252 44.2866 34.2545L47.4954 37.3749C47.6289 37.504 47.8095 37.5764 47.9977 37.5764C48.186 37.5764 48.3666 37.504 48.5 37.3749L49.3157 36.5821C49.8009 36.8253 50.306 37.029 50.8257 37.1913V38.3106C50.8257 38.4013 50.8441 38.491 50.8798 38.5748C50.9156 38.6585 50.9679 38.7346 51.034 38.7986C51.1 38.8626 51.1783 38.9134 51.2646 38.9479C51.3508 38.9825 51.4432 39.0002 51.5364 39Z" fill="#1B1B1B"/>
</g>
<defs>
<clipPath id="clip0_8_168">
<rect width="65" height="46" fill="white"/>
</clipPath>
</defs>
</svg>
