<svg width="51" height="46" viewBox="0 0 51 46" fill="none" xmlns="http://www.w3.org/2000/svg">
<g clip-path="url(#clip0_14_249)">
<path d="M20.3216 41.3897C20.1269 41.3897 19.9356 41.3393 19.7666 41.2434C19.5976 41.1476 19.4568 41.0097 19.3583 40.8433C15.6466 34.5794 5.75122 21.2416 5.6518 21.1076C5.49284 20.8935 5.41696 20.63 5.43802 20.365C5.45909 20.1001 5.57569 19.8515 5.76653 19.6648L8.80932 16.6861C8.99515 16.5042 9.23948 16.3926 9.49979 16.3706C9.76011 16.3487 10.02 16.4179 10.2341 16.566L20.0892 23.3825C26.6837 15.0058 32.8093 9.21846 36.8392 5.80349C41.3763 1.9595 44.2645 0.228948 44.3854 0.157685C44.559 0.054501 44.7576 -3.21373e-06 44.9601 2.24068e-09H49.8828C50.1093 -1.42702e-05 50.3304 0.0681548 50.5168 0.195469C50.7033 0.322783 50.8463 0.503229 50.9269 0.712884C51.0074 0.922539 51.0218 1.1515 50.968 1.36941C50.9142 1.58732 50.7948 1.78389 50.6256 1.93306C36.6463 14.2673 21.4442 40.5665 21.2923 40.8308C21.1953 40.9995 21.0552 41.1399 20.8861 41.238C20.717 41.336 20.5248 41.3883 20.3289 41.3896L20.3216 41.3897Z" fill="#E63D24"/>
<path d="M20.1073 45.9999C9.02013 45.9999 0 37.0647 0 26.0817C0 15.0988 9.02013 6.16359 20.1073 6.16359C22.3303 6.16125 24.5383 6.52472 26.6411 7.23917C26.9214 7.33455 27.1518 7.53629 27.2819 7.8C27.4119 8.06372 27.4309 8.36782 27.3346 8.64539C27.2383 8.92296 27.0347 9.15128 26.7685 9.2801C26.5022 9.40893 26.1953 9.42773 25.915 9.33234C24.0456 8.69727 22.0826 8.37433 20.1063 8.37671C10.2509 8.37671 2.23314 16.3192 2.23314 26.0817C2.23314 35.8443 10.2509 43.7868 20.1063 43.7868C29.9616 43.7868 37.9794 35.8443 37.9794 26.0817C37.9798 24.8838 37.8583 23.689 37.6168 22.5152C37.5874 22.3728 37.5867 22.226 37.6145 22.0833C37.6424 21.9406 37.6984 21.8047 37.7793 21.6835C37.8602 21.5622 37.9644 21.4579 38.0859 21.3765C38.2075 21.2951 38.3441 21.2383 38.4879 21.2092C38.6316 21.1801 38.7798 21.1793 38.9238 21.2069C39.0679 21.2345 39.205 21.29 39.3275 21.3701C39.4499 21.4502 39.5552 21.5534 39.6373 21.6739C39.7195 21.7943 39.7769 21.9296 39.8063 22.072C40.0777 23.3916 40.2144 24.735 40.2141 26.0817C40.2146 37.0647 31.1944 45.9999 20.1073 45.9999Z" fill="#E63D24"/>
</g>
<defs>
<clipPath id="clip0_14_249">
<rect width="51" height="46" fill="white"/>
</clipPath>
</defs>
</svg>
