<svg width="188" height="49" viewBox="0 0 188 49" fill="none" xmlns="http://www.w3.org/2000/svg">
<path fill-rule="evenodd" clip-rule="evenodd" d="M6.65438 27.4733L2.58936 21.457L28.1955 25.3963L6.65438 27.4733Z" fill="#E63D24"/>
<path fill-rule="evenodd" clip-rule="evenodd" d="M50.1853 30.6608L45.2715 33.892L30.0007 25.6032L50.1853 30.6608Z" fill="#E63D24"/>
<path fill-rule="evenodd" clip-rule="evenodd" d="M55.4106 21.457L51.3455 27.4733L29.8044 25.3963L55.4106 21.457Z" fill="#E63D24"/>
<path fill-rule="evenodd" clip-rule="evenodd" d="M12.7284 33.892L7.81445 30.6608L27.999 25.6032L12.7284 33.892Z" fill="#E63D24"/>
<path fill-rule="evenodd" clip-rule="evenodd" d="M2.94543 18.0238L0 9.95029L28.3953 25.2949L2.94543 18.0238Z" fill="#E63D24"/>
<path fill-rule="evenodd" clip-rule="evenodd" d="M31.9852 36.5887L41.0499 41.4177L38.9062 36.5903L30.2034 25.9829L42.3451 35.9531L48.1387 48.9996L29.405 39.0197V25.3963L31.9852 36.5887Z" fill="#E63D24"/>
<path fill-rule="evenodd" clip-rule="evenodd" d="M58 9.95029L55.0544 18.0238L29.6047 25.2949L58 9.95029Z" fill="#E63D24"/>
<path fill-rule="evenodd" clip-rule="evenodd" d="M16.9498 41.4177L26.0147 36.5887L28.5947 25.3963V39.0197L9.86108 48.9996L15.6547 35.9531L27.7964 25.9829L19.0936 36.5903L16.9498 41.4177Z" fill="#E63D24"/>
<path fill-rule="evenodd" clip-rule="evenodd" d="M29 9.39112L24.0754 22.054L21.0576 20.4231L29 0L36.9426 20.4231L33.9246 22.054L29 9.39112Z" fill="#E63D24"/>
<path fill-rule="evenodd" clip-rule="evenodd" d="M77.6168 10.0155H65.0225V7.04846H77.6168V10.0155ZM73.6907 11.3313V25.1091H68.9741V11.3313H73.6907ZM87.2029 25.1091H81.0839L79.9369 23.9481V8.20925L81.0839 7.04846H84.6534V22.2711H87.2029V25.1091ZM88.4778 9.88663V25.1091H92.047L93.1942 23.9481V8.20925L92.047 7.04846H85.9283V9.88663H88.4778ZM109.766 25.1091H105.049V7.04846H109.766V25.1091ZM103.775 19.1749H97.6559L96.5088 18.0137V7.04846H101.225V16.3367H103.775V19.1749ZM118.052 25.1091H113.335V7.04846H118.052V25.1091ZM123.023 13.8856V7.04846H127.74V25.1091H123.023V16.7238H119.327V13.8856H123.023ZM137.81 25.1091H132.456L131.309 23.9481V7.04846H136.026V22.2711H137.81V25.1091ZM139.085 15.5628V25.1091H142.654L143.801 23.9481V13.8856L142.654 12.7246H137.301V15.5628H139.085ZM145.841 25.1091V7.04846H150.558V25.1091H145.841ZM154.127 7.04846H164.835V11.0476H162.668V9.88663H158.844V22.2711H162.668V20.8519H164.835V25.1091H154.127V7.04846ZM160.246 14.5307V16.5947H164.07V14.5307H160.246Z" fill="#E63D24"/>
<path fill-rule="evenodd" clip-rule="evenodd" d="M66.2129 32.124L67.4309 30.9671H77.0387V35.5958H74.6029V33.7958H71.2198V46.1387H74.6029V43.8242H77.0387V48.9671H67.4309L66.2129 47.8101V32.124ZM80.2862 30.9671H85.2931V48.9671H80.2862V30.9671ZM90.8412 30.9671H95.8482V48.9671H90.8412V30.9671ZM89.4882 33.1527V39.0671L86.6463 46.7816V40.8671L89.4882 33.1527ZM99.637 32.124L100.855 30.9671H110.463V35.5958H108.027V33.7958H104.644V46.1387H108.027V43.8242H110.463V48.9671H100.855L99.637 47.8101V32.124ZM125.727 33.9242H112.357V30.9671H125.727V33.9242ZM121.559 35.2356V48.9671H116.552V35.2356H121.559ZM128.19 30.9671H139.557V34.9528H137.256V33.7958H133.197V46.1387H137.256V44.7243H139.557V48.9671H128.19V30.9671ZM134.685 38.4242V40.4814H138.745V38.4242H134.685ZM142.804 48.9671V30.9671H147.812V48.9671H142.804ZM149.164 33.1527H149.435L152.818 42.2814L156.201 33.1527H156.472V41.3815L153.224 47.6815H152.412L149.164 41.3815V33.1527ZM157.825 48.9671V30.9671H162.832V48.9671H157.825ZM173.522 48.9671H167.839L166.621 47.8101V30.9671H171.628V46.1387H173.522V48.9671ZM174.875 39.4529V48.9671H178.665L179.882 47.8101V37.7813L178.665 36.6242H172.981V39.4529H174.875ZM182.048 48.9671V30.9671H187.055V48.9671H182.048Z" fill="#E63D24"/>
</svg>
