<svg width="19" height="19" viewBox="0 0 19 19" fill="none" xmlns="http://www.w3.org/2000/svg">
<g clip-path="url(#clip0_1_1756)">
<path d="M13.3342 11.4931C13.218 11.3836 13.0644 11.3226 12.9047 11.3226C12.7451 11.3226 12.5915 11.3836 12.4753 11.4931L11.1959 12.7723C11.0938 12.8745 10.9725 12.9556 10.839 13.0109C10.7055 13.0662 10.5625 13.0947 10.418 13.0947C10.2735 13.0947 10.1304 13.0662 9.99689 13.0109C9.8634 12.9556 9.74212 12.8745 9.63998 12.7723L6.22722 9.36012C6.12476 9.25796 6.04347 9.1366 5.98801 9.00298C5.93255 8.86937 5.904 8.72612 5.904 8.58145C5.904 8.43679 5.93255 8.29354 5.98801 8.15992C6.04347 8.02631 6.12476 7.90494 6.22722 7.80279L7.50498 6.52362C7.61778 6.4095 7.68104 6.25552 7.68104 6.09507C7.68104 5.93462 7.61778 5.78065 7.50498 5.66652L3.63611 1.79343C3.51995 1.68392 3.36633 1.62292 3.20668 1.62292C3.04703 1.62292 2.89341 1.68392 2.77725 1.79343L1.92326 2.64729C0.691611 3.88255 0 5.55563 0 7.29985C0 9.04408 0.691611 10.7172 1.92326 11.9524L7.04401 17.0723C8.28781 18.3159 9.94082 19 11.699 19C13.4571 19 15.1101 18.3159 16.3539 17.0723L17.2079 16.2185C17.3211 16.1046 17.3846 15.9505 17.3846 15.7899C17.3846 15.6294 17.3211 15.4753 17.2079 15.3614L13.3342 11.4931ZM15.495 16.2153C13.4603 18.2448 9.92464 18.2416 7.90287 16.2153L2.78211 11.0986C1.77684 10.0911 1.21228 8.72616 1.21228 7.30309C1.21228 5.88001 1.77684 4.51504 2.78211 3.50762L3.20425 3.0823L6.21913 6.09669L5.36675 6.94731C4.93345 7.38146 4.6901 7.96974 4.6901 8.58307C4.6901 9.1964 4.93345 9.78468 5.36675 10.2188L8.77951 13.631C9.21428 14.0645 9.80319 14.3078 10.4171 14.3078C11.0311 14.3078 11.62 14.0645 12.0548 13.631L12.9039 12.7804L15.9188 15.7916L15.495 16.2153ZM10.3064 0C10.1455 2.39665e-09 9.99122 0.063892 9.87747 0.177621C9.76372 0.291349 9.69982 0.445598 9.69982 0.606435C9.69982 0.767271 9.76372 0.92152 9.87747 1.03525C9.99122 1.14898 10.1455 1.21287 10.3064 1.21287C12.2897 1.21501 14.1911 2.0037 15.5936 3.40589C16.996 4.80807 17.7848 6.70924 17.7869 8.69223C17.7869 8.85306 17.8508 9.00731 17.9646 9.12104C18.0783 9.23477 18.2326 9.29866 18.3935 9.29866C18.5543 9.29866 18.7086 9.23477 18.8224 9.12104C18.9361 9.00731 19 8.85306 19 8.69223C18.9974 6.38769 18.0807 4.17828 16.4509 2.54873C14.821 0.919179 12.6113 0.00256821 10.3064 0Z" fill="#E63D24"/>
<path d="M14.552 8.69223C14.552 8.85307 14.6159 9.00731 14.7296 9.12104C14.8434 9.23477 14.9976 9.29866 15.1585 9.29866C15.3194 9.29866 15.4736 9.23477 15.5874 9.12104C15.7011 9.00731 15.765 8.85307 15.765 8.69223C15.7633 7.24523 15.1877 5.85798 14.1643 4.83479C13.141 3.81161 11.7535 3.23603 10.3062 3.23432C10.1454 3.23432 9.9911 3.29821 9.87736 3.41194C9.76361 3.52567 9.69971 3.67992 9.69971 3.84075C9.69971 4.00159 9.76361 4.15584 9.87736 4.26957C9.9911 4.38329 10.1454 4.44719 10.3062 4.44719C11.4319 4.44847 12.5111 4.89613 13.307 5.69195C14.103 6.48777 14.5507 7.56677 14.552 8.69223Z" fill="#E63D24"/>
</g>
<defs>
<clipPath id="clip0_1_1756">
<rect width="19" height="19" fill="white"/>
</clipPath>
</defs>
</svg>
