<svg width="95" height="94" viewBox="0 0 95 94" fill="none" xmlns="http://www.w3.org/2000/svg">
<path d="M29.2839 0.0041258L26.5298 0.479919L27.0207 3.20772L29.7748 2.73193L29.2839 0.0041258Z" fill="#1B1B1B"/>
<path d="M42.3287 0.64134L39.5304 0.545898L39.4315 3.31069L42.2299 3.40613L42.3287 0.64134Z" fill="#1B1B1B"/>
<path d="M55.3579 0.797837L52.5699 0.559326L52.3233 3.31672L55.1112 3.55523L55.3579 0.797837Z" fill="#1B1B1B"/>
<path d="M58.5759 1.00492L55.8134 0.576416L55.371 3.31186L58.1335 3.74036L58.5759 1.00492Z" fill="#1B1B1B"/>
<path d="M61.9213 0.536377H59.1201V3.30178H61.9213V0.536377Z" fill="#1B1B1B"/>
<path d="M68.3795 0.95377L65.6094 0.572632L65.2157 3.31485L67.9858 3.69599L68.3795 0.95377Z" fill="#1B1B1B"/>
<path d="M29.1911 4.27804L26.437 3.80225L25.9461 6.53005L28.7002 7.00584L29.1911 4.27804Z" fill="#1B1B1B"/>
<path d="M39.0845 3.38563L36.3076 3.7193L36.6524 6.46744L39.4293 6.13377L39.0845 3.38563Z" fill="#1B1B1B"/>
<path d="M48.8766 3.43898L46.0938 3.7251L46.3895 6.47829L49.1723 6.19217L48.8766 3.43898Z" fill="#1B1B1B"/>
<path d="M55.3374 4.12383L52.5605 3.79016L52.2158 6.5383L54.9926 6.87197L55.3374 4.12383Z" fill="#1B1B1B"/>
<path d="M65.1658 3.91568L62.3701 3.77252L62.2219 6.53571L65.0176 6.67887L65.1658 3.91568Z" fill="#1B1B1B"/>
<path d="M29.1912 7.4999L26.4371 7.02411L25.9462 9.75191L28.7003 10.2277L29.1912 7.4999Z" fill="#1B1B1B"/>
<path d="M35.7564 7.34557L32.9795 7.0119L32.6347 9.76004L35.4116 10.0937L35.7564 7.34557Z" fill="#1B1B1B"/>
<path d="M39.086 6.82059L36.2903 6.96375L36.4385 9.72693L39.2342 9.58377L39.086 6.82059Z" fill="#1B1B1B"/>
<path d="M42.3287 7.08531L39.5304 6.98987L39.4315 9.75466L42.2299 9.8501L42.3287 7.08531Z" fill="#1B1B1B"/>
<path d="M65.1484 7.24175L62.3605 7.00323L62.1138 9.76062L64.9017 9.99914L65.1484 7.24175Z" fill="#1B1B1B"/>
<path d="M68.4571 6.82059L65.6614 6.96375L65.8096 9.72693L68.6053 9.58377L68.4571 6.82059Z" fill="#1B1B1B"/>
<path d="M32.5229 10.4118L29.7307 10.2209L29.5332 12.9817L32.3255 13.1725L32.5229 10.4118Z" fill="#1B1B1B"/>
<path d="M39.0768 10.2021H36.2756V12.9676H39.0768V10.2021Z" fill="#1B1B1B"/>
<path d="M45.6141 9.93605L42.8262 10.1746L43.0729 12.932L45.8608 12.6934L45.6141 9.93605Z" fill="#1B1B1B"/>
<path d="M48.876 10.0425L46.0803 10.1857L46.2285 12.9489L49.0242 12.8057L48.876 10.0425Z" fill="#1B1B1B"/>
<path d="M58.6655 9.82924L55.8887 10.1629L56.2334 12.911L59.0103 12.5774L58.6655 9.82924Z" fill="#1B1B1B"/>
<path d="M65.1946 9.98902L62.4023 10.1799L62.5998 12.9406L65.3921 12.7497L65.1946 9.98902Z" fill="#1B1B1B"/>
<path d="M35.8187 12.9979L33.0486 13.379L33.4422 16.1212L36.2123 15.7401L35.8187 12.9979Z" fill="#1B1B1B"/>
<path d="M39.0654 13.5289L36.2671 13.4334L36.1682 16.1982L38.9666 16.2936L39.0654 13.5289Z" fill="#1B1B1B"/>
<path d="M42.3287 13.5289L39.5304 13.4334L39.4315 16.1982L42.2299 16.2936L42.3287 13.5289Z" fill="#1B1B1B"/>
<path d="M45.598 13.4768L42.7979 13.4287L42.7488 16.1942L45.549 16.2423L45.598 13.4768Z" fill="#1B1B1B"/>
<path d="M48.8617 13.4768L46.0615 13.4287L46.0125 16.1942L48.8126 16.2423L48.8617 13.4768Z" fill="#1B1B1B"/>
<path d="M55.4011 13.3175L52.6028 13.413L52.7016 16.1778L55.5 16.0823L55.4011 13.3175Z" fill="#1B1B1B"/>
<path d="M61.9263 12.9979L59.1562 13.379L59.5499 16.1212L62.32 15.7401L61.9263 12.9979Z" fill="#1B1B1B"/>
<path d="M65.1947 13.1577L62.4067 13.3962L62.6534 16.1536L65.4414 15.9151L65.1947 13.1577Z" fill="#1B1B1B"/>
<path d="M68.3525 13.9433L65.5984 13.4675L65.1075 16.1953L67.8616 16.6711L68.3525 13.9433Z" fill="#1B1B1B"/>
<path d="M29.2901 16.5926L26.49 16.6407L26.5391 19.4062L29.3393 19.3582L29.2901 16.5926Z" fill="#1B1B1B"/>
<path d="M32.5311 16.8029L29.7354 16.6597L29.5872 19.4229L32.3829 19.5661L32.5311 16.8029Z" fill="#1B1B1B"/>
<path d="M42.3441 16.5926L39.5439 16.6407L39.593 19.4062L42.3932 19.3582L42.3441 16.5926Z" fill="#1B1B1B"/>
<path d="M48.8724 16.2198L46.1023 16.601L46.4959 19.3432L49.266 18.962L48.8724 16.2198Z" fill="#1B1B1B"/>
<path d="M55.3825 16.7507L52.5841 16.6552L52.4853 19.42L55.2836 19.5154L55.3825 16.7507Z" fill="#1B1B1B"/>
<path d="M61.9229 16.1664L59.1604 16.5949L59.6027 19.3304L62.3653 18.9018L61.9229 16.1664Z" fill="#1B1B1B"/>
<path d="M29.296 19.5482L26.5132 19.8343L26.809 22.5875L29.5918 22.3014L29.296 19.5482Z" fill="#1B1B1B"/>
<path d="M35.7675 20.1813L32.9847 19.8951L32.689 22.6483L35.4718 22.9345L35.7675 20.1813Z" fill="#1B1B1B"/>
<path d="M42.3499 19.5482L39.5671 19.8343L39.8629 22.5875L42.6457 22.3014L42.3499 19.5482Z" fill="#1B1B1B"/>
<path d="M48.8692 19.3883L46.1067 19.8168L46.549 22.5523L49.3115 22.1238L48.8692 19.3883Z" fill="#1B1B1B"/>
<path d="M55.3375 20.2333L52.5607 19.8997L52.2159 22.6478L54.9928 22.9815L55.3375 20.2333Z" fill="#1B1B1B"/>
<path d="M61.8753 20.1813L59.0925 19.8951L58.7967 22.6483L61.5795 22.9345L61.8753 20.1813Z" fill="#1B1B1B"/>
<path d="M68.3526 20.3873L65.5985 19.9115L65.1076 22.6393L67.8617 23.1151L68.3526 20.3873Z" fill="#1B1B1B"/>
<path d="M29.275 23.1944L26.4767 23.0989L26.3778 25.8637L29.1762 25.9592L29.275 23.1944Z" fill="#1B1B1B"/>
<path d="M32.5383 23.1943L29.74 23.0989L29.6411 25.8637L32.4395 25.9591L32.5383 23.1943Z" fill="#1B1B1B"/>
<path d="M42.3423 22.6102L39.5798 23.0388L40.0222 25.7742L42.7847 25.3457L42.3423 22.6102Z" fill="#1B1B1B"/>
<path d="M48.8692 22.6102L46.1067 23.0388L46.549 25.7742L49.3115 25.3457L48.8692 22.6102Z" fill="#1B1B1B"/>
<path d="M52.0946 23.3509L49.3066 23.1124L49.06 25.8698L51.8479 26.1083L52.0946 23.3509Z" fill="#1B1B1B"/>
<path d="M65.1485 23.3511L62.3606 23.1126L62.1139 25.87L64.9018 26.1085L65.1485 23.3511Z" fill="#1B1B1B"/>
<path d="M68.391 23.4547L65.6141 23.121L65.2694 25.8692L68.0462 26.2028L68.391 23.4547Z" fill="#1B1B1B"/>
<path d="M9.71567 26.045L6.92773 26.2835L7.17442 29.0409L9.96235 28.8024L9.71567 26.045Z" fill="#1B1B1B"/>
<path d="M12.9744 25.8852L10.2043 26.2663L10.598 29.0085L13.3681 28.6274L12.9744 25.8852Z" fill="#1B1B1B"/>
<path d="M16.2342 25.8319L13.4717 26.2604L13.914 28.9959L16.6765 28.5674L16.2342 25.8319Z" fill="#1B1B1B"/>
<path d="M22.7695 26.0982L19.9773 26.2891L20.1748 29.0498L22.967 28.8589L22.7695 26.0982Z" fill="#1B1B1B"/>
<path d="M29.1911 26.8308L26.437 26.355L25.9461 29.0828L28.7002 29.5586L29.1911 26.8308Z" fill="#1B1B1B"/>
<path d="M35.8236 26.045L33.0356 26.2835L33.2823 29.0409L36.0703 28.8024L35.8236 26.045Z" fill="#1B1B1B"/>
<path d="M45.5676 26.5729L42.7797 26.3344L42.533 29.0917L45.3209 29.3303L45.5676 26.5729Z" fill="#1B1B1B"/>
<path d="M52.0355 26.831L49.2814 26.3552L48.7905 29.083L51.5446 29.5588L52.0355 26.831Z" fill="#1B1B1B"/>
<path d="M55.3482 26.6245L52.5654 26.3384L52.2696 29.0916L55.0524 29.3777L55.3482 26.6245Z" fill="#1B1B1B"/>
<path d="M61.9263 25.8852L59.1562 26.2663L59.5499 29.0085L62.32 28.6274L61.9263 25.8852Z" fill="#1B1B1B"/>
<path d="M65.1924 25.9384L62.4155 26.2721L62.7603 29.0202L65.5372 28.6866L65.1924 25.9384Z" fill="#1B1B1B"/>
<path d="M71.7001 26.4161L68.9017 26.3207L68.8029 29.0855L71.6012 29.1809L71.7001 26.4161Z" fill="#1B1B1B"/>
<path d="M74.8793 26.8308L72.1252 26.355L71.6343 29.0828L74.3885 29.5586L74.8793 26.8308Z" fill="#1B1B1B"/>
<path d="M78.2195 26.4687L75.4238 26.3256L75.2756 29.0887L78.0713 29.2319L78.2195 26.4687Z" fill="#1B1B1B"/>
<path d="M88.0326 26.2585L85.2324 26.3065L85.2815 29.0721L88.0817 29.024L88.0326 26.2585Z" fill="#1B1B1B"/>
<path d="M91.3001 25.9384L88.5232 26.2721L88.868 29.0202L91.6448 28.6866L91.3001 25.9384Z" fill="#1B1B1B"/>
<path d="M94.5657 26.0982L91.7734 26.2891L91.9709 29.0498L94.7632 28.8589L94.5657 26.0982Z" fill="#1B1B1B"/>
<path d="M3.18881 29.2669L0.400879 29.5054L0.647566 32.2628L3.4355 32.0243L3.18881 29.2669Z" fill="#1B1B1B"/>
<path d="M6.45098 29.3734L3.65527 29.5165L3.80347 32.2797L6.59918 32.1366L6.45098 29.3734Z" fill="#1B1B1B"/>
<path d="M9.71465 29.3734L6.91895 29.5165L7.06714 32.2797L9.86285 32.1366L9.71465 29.3734Z" fill="#1B1B1B"/>
<path d="M29.2175 29.95L26.4474 29.5689L26.0538 32.3111L28.8238 32.6923L29.2175 29.95Z" fill="#1B1B1B"/>
<path d="M32.5518 29.0538L29.7893 29.4824L30.2317 32.2178L32.9942 31.7893L32.5518 29.0538Z" fill="#1B1B1B"/>
<path d="M35.8187 29.1068L33.0486 29.488L33.4422 32.2302L36.2123 31.8491L35.8187 29.1068Z" fill="#1B1B1B"/>
<path d="M39.008 29.95L36.2379 29.5689L35.8443 32.3111L38.6144 32.6923L39.008 29.95Z" fill="#1B1B1B"/>
<path d="M42.2718 29.95L39.5017 29.5689L39.1081 32.3111L41.8782 32.6923L42.2718 29.95Z" fill="#1B1B1B"/>
<path d="M48.875 29.1604L46.0981 29.494L46.4429 32.2422L49.2198 31.9085L48.875 29.1604Z" fill="#1B1B1B"/>
<path d="M55.3754 29.6904L52.5797 29.5472L52.4315 32.3104L55.2272 32.4536L55.3754 29.6904Z" fill="#1B1B1B"/>
<path d="M58.639 29.6904L55.8433 29.5472L55.6951 32.3104L58.4908 32.4536L58.639 29.6904Z" fill="#1B1B1B"/>
<path d="M71.7157 29.4801L68.9155 29.5282L68.9646 32.2937L71.7648 32.2457L71.7157 29.4801Z" fill="#1B1B1B"/>
<path d="M74.975 29.533H72.1738V32.2984H74.975V29.533Z" fill="#1B1B1B"/>
<path d="M78.2271 29.6381L75.4287 29.5427L75.3299 32.3075L78.1282 32.4029L78.2271 29.6381Z" fill="#1B1B1B"/>
<path d="M81.506 29.4801L78.7058 29.5282L78.7549 32.2937L81.5551 32.2457L81.506 29.4801Z" fill="#1B1B1B"/>
<path d="M84.7722 29.4267L81.9739 29.5222L82.0727 32.2869L84.8711 32.1915L84.7722 29.4267Z" fill="#1B1B1B"/>
<path d="M94.5372 29.6904L91.7415 29.5472L91.5933 32.3104L94.389 32.4536L94.5372 29.6904Z" fill="#1B1B1B"/>
<path d="M6.44734 32.3288L3.67725 32.7099L4.07088 35.4521L6.84097 35.071L6.44734 32.3288Z" fill="#1B1B1B"/>
<path d="M9.71494 32.4354L6.93213 32.7216L7.22792 35.4748L10.0107 35.1886L9.71494 32.4354Z" fill="#1B1B1B"/>
<path d="M16.1966 33.0164L13.4087 32.7779L13.162 35.5353L15.9499 35.7738L16.1966 33.0164Z" fill="#1B1B1B"/>
<path d="M19.4773 32.9122L16.6816 32.769L16.5334 35.5322L19.3291 35.6754L19.4773 32.9122Z" fill="#1B1B1B"/>
<path d="M22.7594 32.7548H19.9583V35.5202H22.7594V32.7548Z" fill="#1B1B1B"/>
<path d="M26.0281 32.3288L23.2581 32.7099L23.6517 35.4521L26.4218 35.071L26.0281 32.3288Z" fill="#1B1B1B"/>
<path d="M29.2942 32.382L26.5173 32.7157L26.8621 35.4638L29.639 35.1302L29.2942 32.382Z" fill="#1B1B1B"/>
<path d="M32.4928 33.1203L29.7159 32.7866L29.3712 35.5348L32.148 35.8684L32.4928 33.1203Z" fill="#1B1B1B"/>
<path d="M42.3287 32.8598L39.5304 32.7644L39.4315 35.5292L42.2299 35.6246L42.3287 32.8598Z" fill="#1B1B1B"/>
<path d="M45.6106 32.6486L42.8123 32.7441L42.9111 35.5089L45.7095 35.4134L45.6106 32.6486Z" fill="#1B1B1B"/>
<path d="M55.3981 32.7018L52.5979 32.7499L52.647 35.5154L55.4472 35.4674L55.3981 32.7018Z" fill="#1B1B1B"/>
<path d="M58.6309 32.9645L55.8386 32.7737L55.6411 35.5344L58.4334 35.7253L58.6309 32.9645Z" fill="#1B1B1B"/>
<path d="M68.4481 32.7548H65.647V35.5202H68.4481V32.7548Z" fill="#1B1B1B"/>
<path d="M71.7214 32.5421L68.9292 32.7329L69.1267 35.4936L71.9189 35.3028L71.7214 32.5421Z" fill="#1B1B1B"/>
<path d="M74.9724 32.2224L72.2183 32.6982L72.7092 35.426L75.4633 34.9503L74.9724 32.2224Z" fill="#1B1B1B"/>
<path d="M84.7745 32.5953L81.9788 32.7385L82.127 35.5017L84.9227 35.3585L84.7745 32.5953Z" fill="#1B1B1B"/>
<path d="M3.18047 35.4973L0.417969 35.9258L0.860315 38.6612L3.62282 38.2327L3.18047 35.4973Z" fill="#1B1B1B"/>
<path d="M9.63667 36.3937L6.86658 36.0126L6.47294 38.7548L9.24303 39.1359L9.63667 36.3937Z" fill="#1B1B1B"/>
<path d="M29.2506 36.2384L26.4626 35.9999L26.216 38.7573L29.0039 38.9958L29.2506 36.2384Z" fill="#1B1B1B"/>
<path d="M32.4547 36.4965L29.7006 36.0208L29.2097 38.7486L31.9638 39.2243L32.4547 36.4965Z" fill="#1B1B1B"/>
<path d="M35.7317 36.4451L32.9692 36.0165L32.5269 38.752L35.2894 39.1805L35.7317 36.4451Z" fill="#1B1B1B"/>
<path d="M39.086 35.6571L36.3032 35.9432L36.599 38.6964L39.3818 38.4103L39.086 35.6571Z" fill="#1B1B1B"/>
<path d="M52.1307 35.9767H49.3296V38.7421H52.1307V35.9767Z" fill="#1B1B1B"/>
<path d="M65.1485 36.2384L62.3606 35.9999L62.1139 38.7573L64.9018 38.9958L65.1485 36.2384Z" fill="#1B1B1B"/>
<path d="M71.7195 35.604L68.9426 35.9376L69.2874 38.6858L72.0643 38.3521L71.7195 35.604Z" fill="#1B1B1B"/>
<path d="M74.9481 36.1865L72.1559 35.9957L71.9584 38.7564L74.7506 38.9472L74.9481 36.1865Z" fill="#1B1B1B"/>
<path d="M81.5121 35.7105L78.7241 35.949L78.9708 38.7064L81.7587 38.4679L81.5121 35.7105Z" fill="#1B1B1B"/>
<path d="M84.6836 36.4451L81.9211 36.0165L81.4788 38.752L84.2413 39.1805L84.6836 36.4451Z" fill="#1B1B1B"/>
<path d="M91.2808 36.0816L88.4824 35.9862L88.3836 38.751L91.1819 38.8464L91.2808 36.0816Z" fill="#1B1B1B"/>
<path d="M3.14267 39.4601L0.354736 39.2216L0.108049 41.979L2.89598 42.2175L3.14267 39.4601Z" fill="#1B1B1B"/>
<path d="M19.4274 39.6158L16.6573 39.2347L16.2637 41.9769L19.0338 42.358L19.4274 39.6158Z" fill="#1B1B1B"/>
<path d="M22.6641 39.7182L19.91 39.2424L19.4191 41.9702L22.1732 42.446L22.6641 39.7182Z" fill="#1B1B1B"/>
<path d="M29.1911 39.7182L26.437 39.2424L25.9461 41.9702L28.7002 42.446L29.1911 39.7182Z" fill="#1B1B1B"/>
<path d="M32.5136 39.46L29.7257 39.2215L29.479 41.9789L32.267 42.2174L32.5136 39.46Z" fill="#1B1B1B"/>
<path d="M42.259 39.6669L39.4965 39.2384L39.0541 41.9738L41.8166 42.4024L42.259 39.6669Z" fill="#1B1B1B"/>
<path d="M45.5768 39.4081L42.7845 39.2172L42.5871 41.9779L45.3793 42.1688L45.5768 39.4081Z" fill="#1B1B1B"/>
<path d="M48.7717 39.7185L46.0176 39.2427L45.5267 41.9705L48.2808 42.4463L48.7717 39.7185Z" fill="#1B1B1B"/>
<path d="M55.3918 38.6661L52.6377 39.1419L53.1286 41.8697L55.8827 41.3939L55.3918 38.6661Z" fill="#1B1B1B"/>
<path d="M58.6615 39.1454L55.8613 39.1935L55.9104 41.959L58.7106 41.911L58.6615 39.1454Z" fill="#1B1B1B"/>
<path d="M71.721 38.879L68.9382 39.1652L69.234 41.9184L72.0168 41.6322L71.721 38.879Z" fill="#1B1B1B"/>
<path d="M78.233 39.2513L75.4329 39.2032L75.3838 41.9687L78.184 42.0168L78.233 39.2513Z" fill="#1B1B1B"/>
<path d="M91.2564 39.4601L88.4685 39.2216L88.2218 41.979L91.0098 42.2175L91.2564 39.4601Z" fill="#1B1B1B"/>
<path d="M94.5625 39.0922L91.7642 39.1877L91.863 41.9525L94.6614 41.857L94.5625 39.0922Z" fill="#1B1B1B"/>
<path d="M9.71567 42.1541L6.92773 42.3926L7.17442 45.15L9.96235 44.9115L9.71567 42.1541Z" fill="#1B1B1B"/>
<path d="M12.9 42.8374L10.1299 42.4562L9.73625 45.1985L12.5063 45.5796L12.9 42.8374Z" fill="#1B1B1B"/>
<path d="M29.2932 42.3139L26.4949 42.4094L26.5937 45.1742L29.3921 45.0787L29.2932 42.3139Z" fill="#1B1B1B"/>
<path d="M32.5589 42.2609L29.7632 42.4041L29.9114 45.1672L32.7071 45.0241L32.5589 42.2609Z" fill="#1B1B1B"/>
<path d="M35.8213 42.0476L33.0444 42.3813L33.3892 45.1294L36.1661 44.7958L35.8213 42.0476Z" fill="#1B1B1B"/>
<path d="M39.0845 42.0476L36.3076 42.3813L36.6524 45.1294L39.4293 44.7958L39.0845 42.0476Z" fill="#1B1B1B"/>
<path d="M42.2831 42.7856L39.5062 42.4519L39.1614 45.2L41.9383 45.5337L42.2831 42.7856Z" fill="#1B1B1B"/>
<path d="M52.0946 42.682L49.3066 42.4435L49.06 45.2009L51.8479 45.4394L52.0946 42.682Z" fill="#1B1B1B"/>
<path d="M55.3671 42.63L52.5748 42.4391L52.3773 45.1999L55.1696 45.3907L55.3671 42.63Z" fill="#1B1B1B"/>
<path d="M58.6214 42.682L55.8335 42.4435L55.5868 45.2009L58.3747 45.4394L58.6214 42.682Z" fill="#1B1B1B"/>
<path d="M61.9263 41.9943L59.1562 42.3754L59.5499 45.1176L62.32 44.7365L61.9263 41.9943Z" fill="#1B1B1B"/>
<path d="M65.1512 42.6872L62.3633 42.4487L62.1166 45.2061L64.9045 45.4446L65.1512 42.6872Z" fill="#1B1B1B"/>
<path d="M71.6162 42.94L68.8621 42.4642L68.3712 45.192L71.1253 45.6678L71.6162 42.94Z" fill="#1B1B1B"/>
<path d="M74.9061 42.8374L72.136 42.4562L71.7424 45.1985L74.5124 45.5796L74.9061 42.8374Z" fill="#1B1B1B"/>
<path d="M81.4962 42.4732L78.696 42.4251L78.647 45.1906L81.4472 45.2387L81.4962 42.4732Z" fill="#1B1B1B"/>
<path d="M84.7747 42.101L81.9919 42.3871L82.2877 45.1403L85.0705 44.8542L84.7747 42.101Z" fill="#1B1B1B"/>
<path d="M6.45224 45.3761L3.66431 45.6146L3.91099 48.372L6.69893 48.1334L6.45224 45.3761Z" fill="#1B1B1B"/>
<path d="M12.9786 45.3226L10.1958 45.6088L10.4916 48.362L13.2744 48.0758L12.9786 45.3226Z" fill="#1B1B1B"/>
<path d="M19.5027 45.5358L16.7043 45.6313L16.8032 48.3961L19.6015 48.3006L19.5027 45.5358Z" fill="#1B1B1B"/>
<path d="M22.6907 46.0589L19.9207 45.6777L19.527 48.42L22.2971 48.8011L22.6907 46.0589Z" fill="#1B1B1B"/>
<path d="M25.9661 46.0077L23.1892 45.6741L22.8444 48.4222L25.6213 48.7559L25.9661 46.0077Z" fill="#1B1B1B"/>
<path d="M45.609 45.2162L42.8389 45.5974L43.2325 48.3396L46.0026 47.9584L45.609 45.2162Z" fill="#1B1B1B"/>
<path d="M48.876 45.4826L46.0803 45.6257L46.2285 48.3889L49.0242 48.2458L48.876 45.4826Z" fill="#1B1B1B"/>
<path d="M55.4029 45.4826L52.6072 45.6257L52.7554 48.3889L55.5511 48.2458L55.4029 45.4826Z" fill="#1B1B1B"/>
<path d="M58.6576 45.6422H55.8564V48.4076H58.6576V45.6422Z" fill="#1B1B1B"/>
<path d="M78.2486 45.3761L75.4607 45.6146L75.7074 48.372L78.4953 48.1334L78.2486 45.3761Z" fill="#1B1B1B"/>
<path d="M6.39633 49.1778L3.61353 48.8917L3.31774 51.6449L6.10054 51.931L6.39633 49.1778Z" fill="#1B1B1B"/>
<path d="M26.033 48.651L23.2407 48.8419L23.4382 51.6026L26.2304 51.4117L26.033 48.651Z" fill="#1B1B1B"/>
<path d="M32.4684 49.3326L29.7059 48.9041L29.2636 51.6396L32.0261 52.0681L32.4684 49.3326Z" fill="#1B1B1B"/>
<path d="M35.8221 48.7045L33.0264 48.8477L33.1746 51.6108L35.9703 51.4677L35.8221 48.7045Z" fill="#1B1B1B"/>
<path d="M39.0821 48.438L36.312 48.8191L36.7056 51.5613L39.4757 51.1802L39.0821 48.438Z" fill="#1B1B1B"/>
<path d="M42.3218 49.0218L39.5261 48.8786L39.3779 51.6418L42.1736 51.7849L42.3218 49.0218Z" fill="#1B1B1B"/>
<path d="M55.4021 48.4912L52.6252 48.8249L52.97 51.573L55.7469 51.2394L55.4021 48.4912Z" fill="#1B1B1B"/>
<path d="M58.604 49.2352L55.8271 48.9016L55.4824 51.6497L58.2592 51.9834L58.604 49.2352Z" fill="#1B1B1B"/>
<path d="M68.4558 48.4912L65.679 48.8249L66.0237 51.573L68.8006 51.2394L68.4558 48.4912Z" fill="#1B1B1B"/>
<path d="M81.4905 48.9689L78.6921 48.8735L78.5933 51.6383L81.3916 51.7337L81.4905 48.9689Z" fill="#1B1B1B"/>
<path d="M84.7671 48.3847L82.0046 48.8132L82.447 51.5487L85.2095 51.1202L84.7671 48.3847Z" fill="#1B1B1B"/>
<path d="M94.556 48.8641H91.7549V51.6295H94.556V48.8641Z" fill="#1B1B1B"/>
<path d="M3.13266 52.3994L0.349854 52.1133L0.0540638 54.8665L2.83687 55.1526L3.13266 52.3994Z" fill="#1B1B1B"/>
<path d="M9.71465 51.9262L6.91895 52.0693L7.06714 54.8325L9.86285 54.6894L9.71465 51.9262Z" fill="#1B1B1B"/>
<path d="M12.979 51.8729L10.1868 52.0638L10.3843 54.8245L13.1765 54.6337L12.979 51.8729Z" fill="#1B1B1B"/>
<path d="M19.4936 51.5536L16.7395 52.0294L17.2304 54.7572L19.9845 54.2814L19.4936 51.5536Z" fill="#1B1B1B"/>
<path d="M22.7594 52.0858H19.9583V54.8512H22.7594V52.0858Z" fill="#1B1B1B"/>
<path d="M26.0323 51.7662L23.2495 52.0524L23.5453 54.8056L26.3281 54.5194L26.0323 51.7662Z" fill="#1B1B1B"/>
<path d="M29.2506 52.3474L26.4626 52.1089L26.216 54.8663L29.0039 55.1048L29.2506 52.3474Z" fill="#1B1B1B"/>
<path d="M32.5311 52.243L29.7354 52.0999L29.5872 54.863L32.3829 55.0062L32.5311 52.243Z" fill="#1B1B1B"/>
<path d="M35.7949 52.243L32.9991 52.0999L32.8509 54.863L35.6467 55.0062L35.7949 52.243Z" fill="#1B1B1B"/>
<path d="M39.0807 52.0329L36.2805 52.081L36.3296 54.8465L39.1298 54.7985L39.0807 52.0329Z" fill="#1B1B1B"/>
<path d="M55.3254 52.5028L52.5553 52.1217L52.1617 54.8639L54.9318 55.2451L55.3254 52.5028Z" fill="#1B1B1B"/>
<path d="M58.6655 51.7131L55.8887 52.0468L56.2334 54.795L59.0103 54.4613L58.6655 51.7131Z" fill="#1B1B1B"/>
<path d="M68.4455 51.5536L65.6914 52.0294L66.1823 54.7572L68.9364 54.2814L68.4455 51.5536Z" fill="#1B1B1B"/>
<path d="M78.2195 52.243L75.4238 52.0999L75.2756 54.863L78.0713 55.0062L78.2195 52.243Z" fill="#1B1B1B"/>
<path d="M84.7196 52.3998L81.9368 52.1136L81.641 54.8668L84.4238 55.153L84.7196 52.3998Z" fill="#1B1B1B"/>
<path d="M88.0289 52.0858H85.2278V54.8512H88.0289V52.0858Z" fill="#1B1B1B"/>
<path d="M94.5577 51.6066L91.7952 52.0352L92.2375 54.7706L95 54.3421L94.5577 51.6066Z" fill="#1B1B1B"/>
<path d="M3.18653 54.9348L0.409668 55.2685L0.754445 58.0166L3.5313 57.683L3.18653 54.9348Z" fill="#1B1B1B"/>
<path d="M16.2364 55.2546L13.4363 55.3027L13.4854 58.0682L16.2855 58.0202L16.2364 55.2546Z" fill="#1B1B1B"/>
<path d="M19.4602 55.5692L16.6722 55.3307L16.4256 58.0881L19.2135 58.3266L19.4602 55.5692Z" fill="#1B1B1B"/>
<path d="M26.0247 54.8284L23.2622 55.2569L23.7046 57.9923L26.4671 57.5638L26.0247 54.8284Z" fill="#1B1B1B"/>
<path d="M32.5229 55.5173L29.7307 55.3265L29.5332 58.0872L32.3255 58.278L32.5229 55.5173Z" fill="#1B1B1B"/>
<path d="M35.7674 55.6214L32.9846 55.3353L32.6888 58.0885L35.4716 58.3746L35.7674 55.6214Z" fill="#1B1B1B"/>
<path d="M39.0869 55.0949L36.2947 55.2857L36.4922 58.0464L39.2844 57.8556L39.0869 55.0949Z" fill="#1B1B1B"/>
<path d="M42.3423 54.8284L39.5798 55.2569L40.0222 57.9923L42.7847 57.5638L42.3423 54.8284Z" fill="#1B1B1B"/>
<path d="M52.0492 55.7759L49.2867 55.3474L48.8444 58.0829L51.6069 58.5114L52.0492 55.7759Z" fill="#1B1B1B"/>
<path d="M55.4029 55.1481L52.6072 55.2913L52.7554 58.0544L55.5511 57.9113L55.4029 55.1481Z" fill="#1B1B1B"/>
<path d="M58.6465 55.4127L55.8481 55.3173L55.7493 58.082L58.5476 58.1775L58.6465 55.4127Z" fill="#1B1B1B"/>
<path d="M61.8942 55.5173L59.1019 55.3265L58.9044 58.0872L61.6967 58.278L61.8942 55.5173Z" fill="#1B1B1B"/>
<path d="M65.1946 55.0949L62.4023 55.2857L62.5998 58.0464L65.3921 57.8556L65.1946 55.0949Z" fill="#1B1B1B"/>
<path d="M68.412 55.5691L65.624 55.3306L65.3773 58.088L68.1653 58.3265L68.412 55.5691Z" fill="#1B1B1B"/>
<path d="M71.7218 55.0414L68.9338 55.2799L69.1805 58.0373L71.9685 57.7988L71.7218 55.0414Z" fill="#1B1B1B"/>
<path d="M74.9724 54.7752L72.2183 55.251L72.7092 57.9788L75.4633 57.503L74.9724 54.7752Z" fill="#1B1B1B"/>
<path d="M78.1925 55.6214L75.4097 55.3353L75.1139 58.0885L77.8967 58.3746L78.1925 55.6214Z" fill="#1B1B1B"/>
<path d="M81.475 55.5173L78.6827 55.3265L78.4853 58.0872L81.2775 58.278L81.475 55.5173Z" fill="#1B1B1B"/>
<path d="M91.2106 55.7759L88.4481 55.3474L88.0058 58.0829L90.7683 58.5114L91.2106 55.7759Z" fill="#1B1B1B"/>
<path d="M94.5637 54.9348L91.7869 55.2685L92.1316 58.0166L94.9085 57.683L94.5637 54.9348Z" fill="#1B1B1B"/>
<path d="M3.15161 58.7393L0.359375 58.5485L0.16189 61.3092L2.95412 61.5L3.15161 58.7393Z" fill="#1B1B1B"/>
<path d="M9.64844 58.8949L6.87158 58.5612L6.5268 61.3094L9.30366 61.643L9.64844 58.8949Z" fill="#1B1B1B"/>
<path d="M22.7664 58.4231L19.968 58.5186L20.0669 61.2833L22.8652 61.1879L22.7664 58.4231Z" fill="#1B1B1B"/>
<path d="M26.033 58.3168L23.2407 58.5076L23.4382 61.2683L26.2304 61.0775L26.033 58.3168Z" fill="#1B1B1B"/>
<path d="M29.2942 58.1567L26.5173 58.4904L26.8621 61.2386L29.639 60.9049L29.2942 58.1567Z" fill="#1B1B1B"/>
<path d="M48.8483 58.6867L46.0526 58.5436L45.9044 61.3068L48.7001 61.4499L48.8483 58.6867Z" fill="#1B1B1B"/>
<path d="M52.1346 58.4765L49.3345 58.5246L49.3836 61.2901L52.1837 61.2421L52.1346 58.4765Z" fill="#1B1B1B"/>
<path d="M58.5622 59.0492L55.8081 58.5734L55.3172 61.3012L58.0713 61.777L58.5622 59.0492Z" fill="#1B1B1B"/>
<path d="M74.8793 59.0492L72.1252 58.5734L71.6343 61.3012L74.3885 61.777L74.8793 59.0492Z" fill="#1B1B1B"/>
<path d="M81.512 58.3168L78.7197 58.5076L78.9172 61.2683L81.7094 61.0775L81.512 58.3168Z" fill="#1B1B1B"/>
<path d="M84.7732 58.1567L81.9963 58.4904L82.3411 61.2386L85.118 60.9049L84.7732 58.1567Z" fill="#1B1B1B"/>
<path d="M3.18556 61.645L0.387207 61.7405L0.486053 64.5053L3.2844 64.4098L3.18556 61.645Z" fill="#1B1B1B"/>
<path d="M9.71076 61.3254L6.94067 61.7065L7.33431 64.4488L10.1044 64.0676L9.71076 61.3254Z" fill="#1B1B1B"/>
<path d="M12.9663 61.2189L10.2122 61.6947L10.7031 64.4225L13.4572 63.9467L12.9663 61.2189Z" fill="#1B1B1B"/>
<path d="M16.1508 62.2196L13.3883 61.7911L12.946 64.5265L15.7085 64.955L16.1508 62.2196Z" fill="#1B1B1B"/>
<path d="M19.4498 62.065L16.667 61.7789L16.3712 64.5321L19.154 64.8182L19.4498 62.065Z" fill="#1B1B1B"/>
<path d="M32.5576 61.3785L29.7808 61.7122L30.1255 64.4603L32.9024 64.1266L32.5576 61.3785Z" fill="#1B1B1B"/>
<path d="M45.6078 61.6985L42.8076 61.7465L42.8567 64.5121L45.6569 64.464L45.6078 61.6985Z" fill="#1B1B1B"/>
<path d="M48.7855 62.2197L46.0229 61.7911L45.5806 64.5266L48.3431 64.9551L48.7855 62.2197Z" fill="#1B1B1B"/>
<path d="M52.1119 61.9087L49.3162 61.7656L49.168 64.5288L51.9637 64.6719L52.1119 61.9087Z" fill="#1B1B1B"/>
<path d="M58.6576 61.7514H55.8564V64.5168H58.6576V61.7514Z" fill="#1B1B1B"/>
<path d="M61.8521 62.1684L59.082 61.7873L58.6884 64.5295L61.4585 64.9107L61.8521 62.1684Z" fill="#1B1B1B"/>
<path d="M68.4574 61.4318L65.6746 61.718L65.9704 64.4712L68.7532 64.185L68.4574 61.4318Z" fill="#1B1B1B"/>
<path d="M74.9182 62.1166L72.1414 61.783L71.7966 64.5311L74.5734 64.8648L74.9182 62.1166Z" fill="#1B1B1B"/>
<path d="M78.2463 61.3785L75.4695 61.7122L75.8143 64.4603L78.5911 64.1266L78.2463 61.3785Z" fill="#1B1B1B"/>
<path d="M81.5108 61.5918L78.7151 61.7349L78.8633 64.4981L81.659 64.355L81.5108 61.5918Z" fill="#1B1B1B"/>
<path d="M84.7383 61.9609L81.946 61.77L81.7486 64.5307L84.5408 64.7216L84.7383 61.9609Z" fill="#1B1B1B"/>
<path d="M91.2467 62.0649L88.4639 61.7787L88.1681 64.5319L90.9509 64.8181L91.2467 62.0649Z" fill="#1B1B1B"/>
<path d="M94.566 61.485L91.7781 61.7235L92.0248 64.4809L94.8127 64.2424L94.566 61.485Z" fill="#1B1B1B"/>
<path d="M3.12171 65.3386L0.344849 65.0049L7.12087e-05 67.7531L2.77693 68.0868L3.12171 65.3386Z" fill="#1B1B1B"/>
<path d="M16.2379 64.5471L13.4678 64.9282L13.8614 67.6704L16.6315 67.2893L16.2379 64.5471Z" fill="#1B1B1B"/>
<path d="M19.5049 64.8137L16.7092 64.9568L16.8574 67.72L19.6531 67.5769L19.5049 64.8137Z" fill="#1B1B1B"/>
<path d="M22.7325 65.1828L19.9403 64.9919L19.7428 67.7527L22.5351 67.9435L22.7325 65.1828Z" fill="#1B1B1B"/>
<path d="M29.2295 65.3386L26.4526 65.0049L26.1079 67.7531L28.8847 68.0868L29.2295 65.3386Z" fill="#1B1B1B"/>
<path d="M32.5569 64.867L29.7585 64.9624L29.8574 67.7272L32.6557 67.6317L32.5569 64.867Z" fill="#1B1B1B"/>
<path d="M35.7771 65.2345L32.9891 64.996L32.7424 67.7534L35.5304 67.9919L35.7771 65.2345Z" fill="#1B1B1B"/>
<path d="M39.0654 65.0782L36.2671 64.9828L36.1682 67.7476L38.9666 67.843L39.0654 65.0782Z" fill="#1B1B1B"/>
<path d="M52.1324 64.4939L49.3699 64.9224L49.8122 67.6579L52.5747 67.2293L52.1324 64.4939Z" fill="#1B1B1B"/>
<path d="M61.9305 64.6538L59.1477 64.9399L59.4435 67.6931L62.2263 67.407L61.9305 64.6538Z" fill="#1B1B1B"/>
<path d="M68.391 65.3386L65.6141 65.0049L65.2694 67.7531L68.0462 68.0868L68.391 65.3386Z" fill="#1B1B1B"/>
<path d="M71.6927 65.1306L68.897 64.9874L68.7488 67.7506L71.5445 67.8938L71.6927 65.1306Z" fill="#1B1B1B"/>
<path d="M74.8931 65.4416L72.1306 65.0131L71.6883 67.7485L74.4508 68.177L74.8931 65.4416Z" fill="#1B1B1B"/>
<path d="M78.2483 64.7602L75.4561 64.951L75.6535 67.7118L78.4458 67.5209L78.2483 64.7602Z" fill="#1B1B1B"/>
<path d="M81.4992 64.4408L78.7451 64.9166L79.236 67.6444L81.9901 67.1686L81.4992 64.4408Z" fill="#1B1B1B"/>
<path d="M84.7655 64.9733H81.9644V67.7387H84.7655V64.9733Z" fill="#1B1B1B"/>
<path d="M29.2955 68.0354L26.4998 68.1785L26.648 70.9417L29.4437 70.7986L29.2955 68.0354Z" fill="#1B1B1B"/>
<path d="M35.8228 67.8754L33.04 68.1616L33.3358 70.9148L36.1186 70.6286L35.8228 67.8754Z" fill="#1B1B1B"/>
<path d="M39.086 68.0354L36.2903 68.1785L36.4385 70.9417L39.2342 70.7986L39.086 68.0354Z" fill="#1B1B1B"/>
<path d="M42.3043 68.4567L39.5164 68.2182L39.2697 70.9756L42.0576 71.2141L42.3043 68.4567Z" fill="#1B1B1B"/>
<path d="M48.876 68.0354L46.0803 68.1785L46.2285 70.9417L49.0242 70.7986L48.876 68.0354Z" fill="#1B1B1B"/>
<path d="M52.104 68.4046L49.3118 68.2137L49.1143 70.9745L51.9065 71.1653L52.104 68.4046Z" fill="#1B1B1B"/>
<path d="M55.404 67.9821L52.6118 68.173L52.8093 70.9337L55.6015 70.7428L55.404 67.9821Z" fill="#1B1B1B"/>
<path d="M58.6595 67.7158L55.897 68.1443L56.3393 70.8798L59.1018 70.4513L58.6595 67.7158Z" fill="#1B1B1B"/>
<path d="M61.8393 68.6633L59.0768 68.2348L58.6344 70.9702L61.3969 71.3988L61.8393 68.6633Z" fill="#1B1B1B"/>
<path d="M65.1158 68.6122L62.3457 68.2311L61.9521 70.9733L64.7222 71.3544L65.1158 68.6122Z" fill="#1B1B1B"/>
<path d="M68.4019 68.5087L65.6191 68.2225L65.3234 70.9757L68.1062 71.2619L68.4019 68.5087Z" fill="#1B1B1B"/>
<path d="M81.5021 68.195H78.7009V70.9604H81.5021V68.195Z" fill="#1B1B1B"/>
<path d="M84.6965 68.612L81.9264 68.2308L81.5328 70.9731L84.3028 71.3542L84.6965 68.612Z" fill="#1B1B1B"/>
<path d="M91.2897 67.6625L88.5356 68.1383L89.0265 70.8661L91.7806 70.3903L91.2897 67.6625Z" fill="#1B1B1B"/>
<path d="M94.5502 68.2479L91.75 68.1998L91.7009 70.9654L94.5011 71.0135L94.5502 68.2479Z" fill="#1B1B1B"/>
<path d="M32.5383 71.5217L29.74 71.4263L29.6411 74.1911L32.4395 74.2865L32.5383 71.5217Z" fill="#1B1B1B"/>
<path d="M39.0582 71.5746L36.2625 71.4314L36.1143 74.1946L38.91 74.3377L39.0582 71.5746Z" fill="#1B1B1B"/>
<path d="M42.2718 71.8339L39.5017 71.4528L39.1081 74.195L41.8782 74.5761L42.2718 71.8339Z" fill="#1B1B1B"/>
<path d="M45.6131 71.0974L42.8303 71.3835L43.1261 74.1367L45.9089 73.8506L45.6131 71.0974Z" fill="#1B1B1B"/>
<path d="M52.1384 71.044L49.3616 71.3777L49.7063 74.1258L52.4832 73.7922L52.1384 71.044Z" fill="#1B1B1B"/>
<path d="M55.3981 71.3638L52.5979 71.4119L52.647 74.1774L55.4472 74.1293L55.3981 71.3638Z" fill="#1B1B1B"/>
<path d="M65.19 70.9907L62.4199 71.3719L62.8136 74.1141L65.5836 73.733L65.19 70.9907Z" fill="#1B1B1B"/>
<path d="M68.458 71.204L65.6658 71.3949L65.8633 74.1556L68.6555 73.9648L68.458 71.204Z" fill="#1B1B1B"/>
<path d="M74.9724 70.8844L72.2183 71.3602L72.7092 74.088L75.4633 73.6122L74.9724 70.8844Z" fill="#1B1B1B"/>
<path d="M81.4201 71.8852L78.6576 71.4567L78.2152 74.1922L80.9778 74.6207L81.4201 71.8852Z" fill="#1B1B1B"/>
<path d="M91.294 70.9375L88.5315 71.366L88.9738 74.1015L91.7363 73.673L91.294 70.9375Z" fill="#1B1B1B"/>
<path d="M32.5136 74.9003L29.7257 74.6617L29.479 77.4191L32.267 77.6576L32.5136 74.9003Z" fill="#1B1B1B"/>
<path d="M35.8187 74.2127L33.0486 74.5938L33.4422 77.336L36.2123 76.9549L35.8187 74.2127Z" fill="#1B1B1B"/>
<path d="M39.086 74.479L36.2903 74.6221L36.4385 77.3853L39.2342 77.2422L39.086 74.479Z" fill="#1B1B1B"/>
<path d="M42.3405 74.6386H39.5393V77.404H42.3405V74.6386Z" fill="#1B1B1B"/>
<path d="M45.6039 74.6386H42.8027V77.404H45.6039V74.6386Z" fill="#1B1B1B"/>
<path d="M61.8521 75.0557L59.082 74.6746L58.6884 77.4168L61.4585 77.7979L61.8521 75.0557Z" fill="#1B1B1B"/>
<path d="M65.1158 75.0558L62.3457 74.6747L61.9521 77.4169L64.7222 77.798L65.1158 75.0558Z" fill="#1B1B1B"/>
<path d="M68.391 75.004L65.6141 74.6703L65.2694 77.4185L68.0462 77.7522L68.391 75.004Z" fill="#1B1B1B"/>
<path d="M81.4068 75.1585L78.6527 74.6827L78.1618 77.4105L80.9159 77.8863L81.4068 75.1585Z" fill="#1B1B1B"/>
<path d="M84.7538 74.7437L81.9554 74.6483L81.8566 77.413L84.6549 77.5085L84.7538 74.7437Z" fill="#1B1B1B"/>
<path d="M29.2506 78.122L26.4626 77.8835L26.216 80.6409L29.0039 80.8794L29.2506 78.122Z" fill="#1B1B1B"/>
<path d="M35.8236 77.5942L33.0356 77.8327L33.2823 80.5901L36.0703 80.3516L35.8236 77.5942Z" fill="#1B1B1B"/>
<path d="M39.0845 77.4876L36.3076 77.8213L36.6524 80.5694L39.4293 80.2358L39.0845 77.4876Z" fill="#1B1B1B"/>
<path d="M52.1361 77.4346L49.366 77.8157L49.7596 80.558L52.5297 80.1768L52.1361 77.4346Z" fill="#1B1B1B"/>
<path d="M55.4041 77.5942L52.6162 77.8327L52.8629 80.5901L55.6508 80.3516L55.4041 77.5942Z" fill="#1B1B1B"/>
<path d="M61.9309 77.6476L59.1387 77.8385L59.3362 80.5992L62.1284 80.4084L61.9309 77.6476Z" fill="#1B1B1B"/>
<path d="M68.452 77.8074L65.6519 77.8555L65.701 80.621L68.5011 80.573L68.452 77.8074Z" fill="#1B1B1B"/>
<path d="M71.7203 77.701L68.9246 77.8441L69.0728 80.6073L71.8685 80.4641L71.7203 77.701Z" fill="#1B1B1B"/>
<path d="M74.9766 77.3812L72.2141 77.8097L72.6565 80.5451L75.419 80.1166L74.9766 77.3812Z" fill="#1B1B1B"/>
<path d="M78.1815 78.2263L75.4047 77.8926L75.0599 80.6408L77.8367 80.9744L78.1815 78.2263Z" fill="#1B1B1B"/>
<path d="M81.4832 78.018L78.6875 77.8749L78.5393 80.6381L81.335 80.7812L81.4832 78.018Z" fill="#1B1B1B"/>
<path d="M84.7694 77.8074L81.9692 77.8555L82.0183 80.621L84.8185 80.573L84.7694 77.8074Z" fill="#1B1B1B"/>
<path d="M88.0369 77.4876L85.26 77.8213L85.6048 80.5694L88.3816 80.2358L88.0369 77.4876Z" fill="#1B1B1B"/>
<path d="M29.2964 80.8693L26.5042 81.0602L26.7016 83.8209L29.4939 83.63L29.2964 80.8693Z" fill="#1B1B1B"/>
<path d="M35.8107 80.5497L33.0566 81.0255L33.5475 83.7533L36.3016 83.2775L35.8107 80.5497Z" fill="#1B1B1B"/>
<path d="M39.0807 81.0293L36.2805 81.0774L36.3296 83.8429L39.1298 83.7949L39.0807 81.0293Z" fill="#1B1B1B"/>
<path d="M45.6055 80.6031L42.843 81.0316L43.2854 83.7671L46.0479 83.3385L45.6055 80.6031Z" fill="#1B1B1B"/>
<path d="M52.1194 81.1873L49.321 81.0919L49.2222 83.8566L52.0205 83.9521L52.1194 81.1873Z" fill="#1B1B1B"/>
<path d="M58.6671 80.763L55.8843 81.0491L56.1801 83.8023L58.9629 83.5161L58.6671 80.763Z" fill="#1B1B1B"/>
<path d="M65.1818 80.5497L62.4277 81.0255L62.9186 83.7533L65.6727 83.2775L65.1818 80.5497Z" fill="#1B1B1B"/>
<path d="M68.3796 81.4997L65.6095 81.1186L65.2159 83.8608L67.986 84.242L68.3796 81.4997Z" fill="#1B1B1B"/>
<path d="M71.6301 81.551L68.8676 81.1224L68.4252 83.8579L71.1877 84.2864L71.6301 81.551Z" fill="#1B1B1B"/>
<path d="M78.2454 80.9759L75.447 81.0714L75.5459 83.8361L78.3442 83.7407L78.2454 80.9759Z" fill="#1B1B1B"/>
<path d="M84.7296 81.3439L81.9417 81.1054L81.695 83.8628L84.4829 84.1013L84.7296 81.3439Z" fill="#1B1B1B"/>
<path d="M29.2964 84.0913L26.5042 84.2821L26.7016 87.0428L29.4939 86.852L29.2964 84.0913Z" fill="#1B1B1B"/>
<path d="M32.5136 84.5657L29.7257 84.3271L29.479 87.0845L32.267 87.323L32.5136 84.5657Z" fill="#1B1B1B"/>
<path d="M35.8077 84.3571L33.0076 84.309L32.9585 87.0746L35.7587 87.1227L35.8077 84.3571Z" fill="#1B1B1B"/>
<path d="M39.0654 84.4093L36.2671 84.3138L36.1682 87.0786L38.9666 87.1741L39.0654 84.4093Z" fill="#1B1B1B"/>
<path d="M48.8766 83.9846L46.0938 84.2708L46.3895 87.0239L49.1723 86.7378L48.8766 83.9846Z" fill="#1B1B1B"/>
<path d="M52.0736 84.6695L49.2968 84.3358L48.952 87.084L51.7288 87.4176L52.0736 84.6695Z" fill="#1B1B1B"/>
<path d="M55.3942 84.3042H52.593V87.0696H55.3942V84.3042Z" fill="#1B1B1B"/>
<path d="M65.1575 84.5137L62.3652 84.3229L62.1677 87.0836L64.96 87.2744L65.1575 84.5137Z" fill="#1B1B1B"/>
<path d="M68.3525 84.8239L65.5984 84.3481L65.1075 87.0759L67.8616 87.5517L68.3525 84.8239Z" fill="#1B1B1B"/>
<path d="M71.7118 84.3042H68.9106V87.0696H71.7118V84.3042Z" fill="#1B1B1B"/>
<path d="M74.8931 84.7725L72.1306 84.344L71.6883 87.0794L74.4508 87.508L74.8931 84.7725Z" fill="#1B1B1B"/>
<path d="M78.2403 83.825L75.4778 84.2535L75.9201 86.989L78.6826 86.5605L78.2403 83.825Z" fill="#1B1B1B"/>
<path d="M81.5121 84.038L78.7241 84.2766L78.9708 87.0339L81.7587 86.7954L81.5121 84.038Z" fill="#1B1B1B"/>
<path d="M87.96 84.7209L85.1899 84.3397L84.7963 87.0819L87.5664 87.4631L87.96 84.7209Z" fill="#1B1B1B"/>
<path d="M91.265 84.5137L88.4728 84.3229L88.2753 87.0836L91.0675 87.2744L91.265 84.5137Z" fill="#1B1B1B"/>
<path d="M32.5594 87.2066L29.7766 87.4927L30.0724 90.2459L32.8552 89.9598L32.5594 87.2066Z" fill="#1B1B1B"/>
<path d="M42.3472 87.4197L39.5488 87.5157L39.6471 90.2805L42.4454 90.1845L42.3472 87.4197Z" fill="#1B1B1B"/>
<path d="M48.874 87.4197L46.0757 87.5157L46.1739 90.2805L48.9723 90.1845L48.874 87.4197Z" fill="#1B1B1B"/>
<path d="M52.1397 87.3665L49.344 87.5096L49.4922 90.2728L52.2879 90.1297L52.1397 87.3665Z" fill="#1B1B1B"/>
<path d="M55.3482 87.8395L52.5654 87.5533L52.2696 90.3065L55.0524 90.5927L55.3482 87.8395Z" fill="#1B1B1B"/>
<path d="M61.9252 87.4729L59.125 87.521L59.1741 90.2865L61.9743 90.2385L61.9252 87.4729Z" fill="#1B1B1B"/>
<path d="M68.4425 87.5788L65.6423 87.5307L65.5933 90.2962L68.3934 90.3443L68.4425 87.5788Z" fill="#1B1B1B"/>
<path d="M74.929 87.8395L72.1462 87.5533L71.8505 90.3065L74.6333 90.5927L74.929 87.8395Z" fill="#1B1B1B"/>
<path d="M81.5037 87.0467L78.7412 87.4752L79.1836 90.2107L81.9461 89.7821L81.5037 87.0467Z" fill="#1B1B1B"/>
<path d="M84.7193 87.8395L81.9365 87.5533L81.6407 90.3065L84.4235 90.5927L84.7193 87.8395Z" fill="#1B1B1B"/>
<path d="M91.2355 87.8915L88.4586 87.5578L88.1138 90.3059L90.8907 90.6396L91.2355 87.8915Z" fill="#1B1B1B"/>
<path d="M35.8235 90.5349L33.0312 90.7258L33.2287 93.4865L36.021 93.2956L35.8235 90.5349Z" fill="#1B1B1B"/>
<path d="M48.8775 90.4816L46.0896 90.7202L46.3363 93.4775L49.1242 93.239L48.8775 90.4816Z" fill="#1B1B1B"/>
<path d="M61.9305 90.4282L59.1477 90.7144L59.4435 93.4676L62.2263 93.1814L61.9305 90.4282Z" fill="#1B1B1B"/>
<path d="M65.1818 90.2156L62.4277 90.6913L62.9186 93.4191L65.6727 92.9434L65.1818 90.2156Z" fill="#1B1B1B"/>
<path d="M71.6655 91.0615L68.8827 90.7753L68.5869 93.5285L71.3697 93.8146L71.6655 91.0615Z" fill="#1B1B1B"/>
<path d="M74.9827 90.3751L72.2058 90.7088L72.5506 93.4569L75.3274 93.1233L74.9827 90.3751Z" fill="#1B1B1B"/>
<path d="M81.51 90.3751L78.7332 90.7088L79.0779 93.4569L81.8548 93.1233L81.51 90.3751Z" fill="#1B1B1B"/>
<path d="M84.7671 90.2686L82.0046 90.6971L82.447 93.4326L85.2095 93.0041L84.7671 90.2686Z" fill="#1B1B1B"/>
<path d="M87.9338 91.268L85.1797 90.7922L84.6888 93.52L87.4429 93.9958L87.9338 91.268Z" fill="#1B1B1B"/>
<path d="M0.0976562 0.259827V22.8126H22.9419V0.259827H0.0976562ZM19.6785 19.5908H3.36113V3.48166H19.6785V19.5908Z" fill="#1B1B1B"/>
<path d="M71.8938 0.259827V22.8126H94.7381V0.259827H71.8938ZM91.4746 19.5908H75.1573V3.48166H91.4746V19.5908Z" fill="#1B1B1B"/>
<path d="M0.0976562 71.1404V93.6932H22.9419V71.1404H0.0976562ZM19.6785 90.4714H3.36113V74.3622H19.6785V90.4714Z" fill="#1B1B1B"/>
<path d="M16.4147 16.3692C13.3144 15.4026 9.72456 15.4026 6.62427 16.3692C7.60331 13.3084 7.60331 9.76441 6.62427 6.70367C9.72456 7.67022 13.3144 7.67022 16.4147 6.70367C15.4356 9.76441 15.4356 13.3084 16.4147 16.3692Z" fill="#1B1B1B"/>
<path d="M88.2111 16.3692C85.1108 15.4026 81.521 15.4026 78.4207 16.3692C79.3997 13.3084 79.3997 9.76441 78.4207 6.70367C81.521 7.67022 85.1108 7.67022 88.2111 6.70367C87.232 9.76441 87.232 13.3084 88.2111 16.3692Z" fill="#1B1B1B"/>
<path d="M16.4147 87.2495C13.3144 86.2829 9.72456 86.2829 6.62427 87.2495C7.60331 84.1887 7.60331 80.6447 6.62427 77.584C9.72456 78.5505 13.3144 78.5505 16.4147 77.584C15.4356 80.6447 15.4356 84.1887 16.4147 87.2495Z" fill="#1B1B1B"/>
<circle cx="50" cy="47" r="11" fill="#1B1B1B"/>
<rect x="36" y="36" width="23" height="23" fill="#1B1B1B"/>
<path d="M41.2623 46.2508L52.3503 41.9757C52.8649 41.7897 53.3143 42.1012 53.1476 42.8794L53.1485 42.8784L51.2606 51.7727C51.1207 52.4033 50.746 52.5566 50.2218 52.2595L47.3468 50.1407L45.9601 51.4766C45.8068 51.6299 45.6774 51.7593 45.3803 51.7593L45.5844 48.8335L50.9128 44.0198C51.1447 43.8157 50.861 43.7007 50.5553 43.9038L43.9706 48.0496L41.132 47.1641C40.5158 46.9686 40.5024 46.5479 41.2623 46.2508Z" fill="white"/>
</svg>
